<svg width="35" height="35" viewBox="0 0 35 35" fill="none" xmlns="http://www.w3.org/2000/svg">
<g clip-path="url(#clip0_740_494)">
<path d="M29.8724 1.02275C27.6097 -0.670576 24.3899 -0.210449 22.6953 2.04883C20.9993 4.31016 21.4594 7.53057 23.7207 9.22656C24.0837 9.49932 24.3605 9.85205 24.5342 10.252H23.6523C21.9561 10.252 20.5762 8.87198 20.5762 7.17578H18.5254C18.5254 8.85113 19.3333 10.3412 20.5797 11.2773C19.3333 12.2135 18.5253 13.7036 18.5254 15.3789V20.7164C18.1904 20.6672 17.8479 20.6426 17.5 20.6426C17.1521 20.6426 16.8096 20.6672 16.4746 20.7164V15.3789C16.4746 13.7036 15.6667 12.2135 14.4203 11.2773C15.6667 10.3412 16.4746 8.85113 16.4746 7.17578H14.4238C14.4238 8.87198 13.0439 10.252 11.3477 10.252H10.4658C10.6395 9.85205 10.9163 9.49932 11.28 9.22656C13.5406 7.53057 14.0007 4.31016 12.3047 2.04814C10.6101 -0.210449 7.39033 -0.670576 5.12627 1.02344C1.86826 3.46729 0 7.20449 0 11.2773C0 15.3502 1.86826 19.0874 5.12627 21.5312L5.12695 21.5319C7.3917 23.2279 10.6107 22.7624 12.3047 20.5059C14.0007 18.2445 13.5406 15.0241 11.2793 13.3281C10.9163 13.0554 10.6395 12.7026 10.4658 12.3027H11.3477C13.0439 12.3027 14.4238 13.6827 14.4238 15.3789V21.3364C12.0005 22.4896 10.3223 24.9629 10.3223 27.8203C10.3223 31.7783 13.542 34.998 17.5 34.998C21.458 34.998 24.6777 31.7783 24.6777 27.8203C24.6777 24.9629 22.9995 22.4896 20.5762 21.3364V15.379C20.5762 13.6828 21.9561 12.3028 23.6523 12.3028H24.5342C24.3605 12.7027 24.0837 13.0554 23.72 13.3282C21.4594 15.0242 20.9993 18.2446 22.6953 20.5066C24.3879 22.7611 27.6069 23.2294 29.873 21.532L29.8737 21.5313C33.1317 19.0875 35 15.3503 35 11.2774C35 7.20456 33.1317 3.46729 29.8724 1.02275ZM20.5762 28.8457H18.5254V30.8965H16.4746V28.8457H14.4238V26.7949H16.4746V24.7441H18.5254V26.7949H20.5762V28.8457Z" fill="white"/>
</g>
<defs>
<clipPath id="clip0_740_494">
<rect width="35" height="35" fill="white"/>
</clipPath>
</defs>
</svg>
