<svg width="31" height="27" viewBox="0 0 31 27" fill="none" xmlns="http://www.w3.org/2000/svg">
<path d="M8.88993 15.474C10.1569 13.6315 11.8208 12.0965 13.7593 10.982C9.73759 10.0353 5.15915 6.64634 6.20368 4.24555C8.65204 -0.35804 21.0349 5.02321 20.9551 8.87157C22.0905 8.81974 23.228 8.89772 24.3457 9.10399C21.0902 1.23227 8.9572 -2.52148 2.34767 3.12118C1.35071 3.85399 0.907745 5.71665 0.453292 6.81094C0.220928 7.42698 0.13891 8.08957 0.21405 8.74367C0.28919 9.39777 0.51932 10.0245 0.885323 10.5718C1.98235 12.2004 4.15946 14.5328 8.31407 16.4327C8.4892 16.1035 8.68142 15.7831 8.88993 15.474Z" fill="white"/>
<path d="M30.6046 15.7792L29.9068 13.9292C29.2385 12.2125 27.5213 11.3337 25.885 10.672C21.1081 8.97665 15.3293 10.4024 11.6707 13.9122C9.47497 16.0138 7.56255 19.2196 8.43591 21.9781L9.12825 23.8281C10.1214 26.2836 12.4204 26.5029 15.0055 26.5756C20.5661 26.831 32.5296 21.5192 30.6046 15.7792ZM24.3232 17.037C22.408 18.9604 18.4005 20.5124 15.6372 20.4714C12.1831 20.56 10.8536 18.0898 13.4048 15.6906C14.6394 14.5666 16.0859 13.7002 17.6595 13.1422C21.4647 11.7187 24.8547 12.0233 25.5416 13.8624C25.8965 14.7987 25.4645 15.9291 24.3232 17.037Z" fill="white"/>
<path d="M22.0965 13.3697C20.7094 13.4016 19.3386 13.6772 18.0469 14.184C10.6368 17.1551 12.2725 21.1566 19.681 18.5437C21.1122 18.0435 22.4287 17.2617 23.5529 16.2446C25.3548 14.4935 24.5952 13.3604 22.0965 13.3697ZM14.4408 4.52834C12.8807 3.90596 11.2121 3.60106 9.53264 3.63146C4.74202 3.99842 7.99702 7.71553 12.5962 9.45295C13.4726 9.77716 14.3751 10.0254 15.294 10.1951C16.7403 9.55493 18.2757 9.13855 19.8473 8.96021C19.7865 7.73576 17.7199 5.75279 14.4408 4.52834Z" fill="white"/>
</svg>
