<svg width="35" height="35" viewBox="0 0 35 35" fill="none" xmlns="http://www.w3.org/2000/svg">
<path d="M27.805 29.1154L28.5668 29.8784L29.8782 28.5671L29.1152 27.8053C28.7117 28.274 28.2738 28.712 27.805 29.1154ZM29.3911 30.7038L32.3953 33.7115C32.4752 33.7898 32.5826 33.8337 32.6945 33.8337C32.8064 33.8337 32.9138 33.7898 32.9938 33.7115L33.7113 32.9946C33.7897 32.9138 33.8333 32.8055 33.8327 32.6929C33.832 32.5803 33.7872 32.4724 33.7078 32.3926L30.7036 29.3919L29.3911 30.7038ZM1.1665 16.8526C1.16952 17.8978 1.52002 18.9124 2.16284 19.7366L6.33834 25.0449C7.14132 26.0743 7.57924 27.3415 7.58317 28.647V33.2501C7.58317 33.4048 7.64463 33.5532 7.75403 33.6626C7.86342 33.772 8.01179 33.8334 8.1665 33.8334H19.8332C19.9879 33.8334 20.1363 33.772 20.2457 33.6626C20.355 33.5532 20.4165 33.4048 20.4165 33.2501V32.0537C20.2217 32.063 20.0303 32.0834 19.8332 32.0834C18.0959 32.0911 16.3769 31.7291 14.7902 31.0215C13.2035 30.314 11.7855 29.277 10.6302 27.9795C9.47493 26.682 8.60887 25.1536 8.0895 23.4957C7.57012 21.8379 7.40932 20.0885 7.61776 18.3638C7.8262 16.6391 8.39911 14.9784 9.29847 13.492C10.1978 12.0056 11.4031 10.7275 12.8342 9.74255C14.2653 8.75759 15.8895 8.08831 17.5991 7.77911C19.3086 7.46991 21.0644 7.52788 22.7498 7.94917V5.34867C22.7589 4.90158 22.603 4.46682 22.3118 4.12744C22.0206 3.78805 21.6146 3.56783 21.1713 3.50883C20.9292 3.48953 20.6857 3.51998 20.4558 3.59831C20.2258 3.67664 20.0144 3.80119 19.8344 3.9643C19.6544 4.1274 19.5097 4.32562 19.4091 4.54674C19.3086 4.76787 19.2544 5.00722 19.2498 5.25008C19.2498 5.40479 19.1884 5.55317 19.079 5.66256C18.9696 5.77196 18.8212 5.83342 18.6665 5.83342C18.5118 5.83342 18.3634 5.77196 18.254 5.66256C18.1446 5.55317 18.0832 5.40479 18.0832 5.25008V4.182C18.0922 3.73492 17.9363 3.30016 17.6451 2.96077C17.3539 2.62139 16.9479 2.40116 16.5047 2.34217C16.2625 2.32278 16.019 2.35317 15.789 2.43146C15.559 2.50976 15.3475 2.63431 15.1675 2.79743C14.9875 2.96055 14.8428 3.1588 14.7423 3.37997C14.6418 3.60113 14.5877 3.84053 14.5832 4.08342C14.5832 4.23813 14.5217 4.3865 14.4123 4.4959C14.3029 4.60529 14.1545 4.66675 13.9998 4.66675C13.8451 4.66675 13.6968 4.60529 13.5874 4.4959C13.478 4.3865 13.4165 4.23813 13.4165 4.08342V3.01533C13.4256 2.56825 13.2696 2.13349 12.9785 1.79411C12.6873 1.45472 12.2813 1.2345 11.838 1.1755C11.5957 1.15542 11.3519 1.18532 11.1216 1.26336C10.8913 1.3414 10.6796 1.46591 10.4994 1.62917C10.3192 1.79243 10.1745 1.99095 10.0743 2.21244C9.97401 2.43393 9.92031 2.67365 9.9165 2.91675V3.50008C9.9165 3.65479 9.85505 3.80317 9.74565 3.91256C9.63625 4.02196 9.48788 4.08342 9.33317 4.08342C9.17846 4.08342 9.03009 4.02196 8.92069 3.91256C8.8113 3.80317 8.74984 3.65479 8.74984 3.50008C8.74689 3.2568 8.69378 3.01674 8.59383 2.79491C8.49387 2.57309 8.34923 2.37427 8.16893 2.21089C7.98864 2.04752 7.77658 1.9231 7.54601 1.84541C7.31544 1.76773 7.07132 1.73846 6.82892 1.75942C6.38565 1.81827 5.97959 2.03835 5.68831 2.37763C5.39702 2.71691 5.24093 3.15159 5.24984 3.59867V15.1668C5.24984 15.3215 5.18838 15.4698 5.07898 15.5792C4.96959 15.6886 4.82121 15.7501 4.6665 15.7501C4.51179 15.7501 4.36342 15.6886 4.25403 15.5792C4.14463 15.4698 4.08317 15.3215 4.08317 15.1668V7.052C3.26842 7.19042 2.52884 7.61241 1.99511 8.24337C1.46139 8.87434 1.1679 9.67366 1.1665 10.5001V16.8526ZM28.5832 19.8334C28.5825 18.2416 28.1476 16.6801 27.3252 15.3171C26.5029 13.9541 25.3244 12.8413 23.9165 12.0984V18.2584C23.9168 18.9943 23.762 19.722 23.4621 20.394L21.9332 23.8322C21.7011 24.3546 21.5818 24.9201 21.5832 25.4918V28.4084C23.5583 28.0025 25.333 26.9279 26.6082 25.3658C27.8833 23.8038 28.5808 21.8498 28.5832 19.8334Z" fill="white"/>
<path d="M8.75 19.8333C8.75 22.0254 9.40003 24.1683 10.6179 25.9909C11.8357 27.8136 13.5667 29.2341 15.5919 30.073C17.6171 30.9119 19.8456 31.1314 21.9956 30.7037C24.1455 30.2761 26.1204 29.2205 27.6704 27.6704C29.2205 26.1204 30.2761 24.1455 30.7037 21.9956C31.1314 19.8456 30.9119 17.6171 30.073 15.5919C29.2341 13.5667 27.8136 11.8357 25.9909 10.6179C24.1683 9.40003 22.0254 8.75 19.8333 8.75C16.8948 8.75324 14.0776 9.92199 11.9998 11.9998C9.92199 14.0776 8.75324 16.8948 8.75 19.8333ZM21 12.25C21.1547 12.25 21.3031 12.3115 21.4125 12.4209C21.5219 12.5303 21.5833 12.6786 21.5833 12.8333V13.4167C21.5833 13.5714 21.5219 13.7198 21.4125 13.8291C21.3031 13.9385 21.1547 14 21 14C20.8453 14 20.6969 13.9385 20.5875 13.8291C20.4781 13.7198 20.4167 13.5714 20.4167 13.4167V12.8333C20.4167 12.6786 20.4781 12.5303 20.5875 12.4209C20.6969 12.3115 20.8453 12.25 21 12.25ZM21 16.9167C20.8453 16.9167 20.6969 16.8552 20.5875 16.7458C20.4781 16.6364 20.4167 16.488 20.4167 16.3333V15.75C20.4167 15.5953 20.4781 15.4469 20.5875 15.3375C20.6969 15.2281 20.8453 15.1667 21 15.1667C21.1547 15.1667 21.3031 15.2281 21.4125 15.3375C21.5219 15.4469 21.5833 15.5953 21.5833 15.75V16.3333C21.5833 16.488 21.5219 16.6364 21.4125 16.7458C21.3031 16.8552 21.1547 16.9167 21 16.9167ZM21.5833 18.6667V19.25C21.5833 19.4047 21.5219 19.5531 21.4125 19.6625C21.3031 19.7719 21.1547 19.8333 21 19.8333C20.8453 19.8333 20.6969 19.7719 20.5875 19.6625C20.4781 19.5531 20.4167 19.4047 20.4167 19.25V18.6667C20.4167 18.512 20.4781 18.3636 20.5875 18.2542C20.6969 18.1448 20.8453 18.0833 21 18.0833C21.1547 18.0833 21.3031 18.1448 21.4125 18.2542C21.5219 18.3636 21.5833 18.512 21.5833 18.6667ZM20.4167 10.5C20.4167 10.6547 20.3552 10.8031 20.2458 10.9125C20.1364 11.0219 19.988 11.0833 19.8333 11.0833C17.5127 11.0833 15.2871 12.0052 13.6461 13.6461C12.0052 15.2871 11.0833 17.5127 11.0833 19.8333C11.0833 22.154 12.0052 24.3796 13.6461 26.0205C15.2871 27.6615 17.5127 28.5833 19.8333 28.5833C20.0305 28.5833 20.223 28.5664 20.4167 28.5536V25.4917C20.4164 24.7558 20.5712 24.0281 20.8711 23.3561L22.4 19.9179C22.6321 19.3955 22.7513 18.83 22.75 18.2583V11.5833C22.512 11.4985 22.2689 11.424 22.0208 11.3598C21.874 11.3185 21.7493 11.2213 21.6733 11.0891C21.5973 10.9569 21.5761 10.8001 21.6142 10.6525C21.6523 10.5048 21.7468 10.378 21.8773 10.2991C22.0078 10.2202 22.164 10.1956 22.3125 10.2305C24.7553 10.86 26.8666 12.3965 28.2167 14.5274C29.5669 16.6583 30.0545 19.2235 29.5804 21.7012C29.1063 24.1789 27.7061 26.3829 25.6646 27.8648C23.6232 29.3467 21.0938 29.9953 18.5912 29.6785C16.0885 29.3617 13.8006 28.1033 12.1928 26.1594C10.585 24.2156 9.77812 21.7322 9.93638 19.2145C10.0946 16.6969 11.2061 14.334 13.0446 12.6068C14.8832 10.8795 17.3107 9.9176 19.8333 9.91667C19.988 9.91667 20.1364 9.97812 20.2458 10.0875C20.3552 10.1969 20.4167 10.3453 20.4167 10.5ZM18.6667 23.3333C18.512 23.3333 18.3636 23.2719 18.2542 23.1625C18.1448 23.0531 18.0833 22.9047 18.0833 22.75V22.1667C18.0833 22.012 18.1448 21.8636 18.2542 21.7542C18.3636 21.6448 18.512 21.5833 18.6667 21.5833C18.8214 21.5833 18.9698 21.6448 19.0791 21.7542C19.1885 21.8636 19.25 22.012 19.25 22.1667V22.75C19.25 22.9047 19.1885 23.0531 19.0791 23.1625C18.9698 23.2719 18.8214 23.3333 18.6667 23.3333ZM19.25 25.0833V25.6667C19.25 25.8214 19.1885 25.9698 19.0791 26.0791C18.9698 26.1885 18.8214 26.25 18.6667 26.25C18.512 26.25 18.3636 26.1885 18.2542 26.0791C18.1448 25.9698 18.0833 25.8214 18.0833 25.6667V25.0833C18.0833 24.9286 18.1448 24.7803 18.2542 24.6709C18.3636 24.5615 18.512 24.5 18.6667 24.5C18.8214 24.5 18.9698 24.5615 19.0791 24.6709C19.1885 24.7803 19.25 24.9286 19.25 25.0833ZM18.6667 20.4167C18.512 20.4167 18.3636 20.3552 18.2542 20.2458C18.1448 20.1364 18.0833 19.988 18.0833 19.8333V19.25C18.0833 19.0953 18.1448 18.9469 18.2542 18.8375C18.3636 18.7281 18.512 18.6667 18.6667 18.6667C18.8214 18.6667 18.9698 18.7281 19.0791 18.8375C19.1885 18.9469 19.25 19.0953 19.25 19.25V19.8333C19.25 19.988 19.1885 20.1364 19.0791 20.2458C18.9698 20.3552 18.8214 20.4167 18.6667 20.4167ZM18.6667 17.5C18.512 17.5 18.3636 17.4385 18.2542 17.3291C18.1448 17.2198 18.0833 17.0714 18.0833 16.9167V16.3333C18.0833 16.1786 18.1448 16.0303 18.2542 15.9209C18.3636 15.8115 18.512 15.75 18.6667 15.75C18.8214 15.75 18.9698 15.8115 19.0791 15.9209C19.1885 16.0303 19.25 16.1786 19.25 16.3333V16.9167C19.25 17.0714 19.1885 17.2198 19.0791 17.3291C18.9698 17.4385 18.8214 17.5 18.6667 17.5ZM18.6667 14.5833C18.512 14.5833 18.3636 14.5219 18.2542 14.4125C18.1448 14.3031 18.0833 14.1547 18.0833 14V13.4167C18.0833 13.262 18.1448 13.1136 18.2542 13.0042C18.3636 12.8948 18.512 12.8333 18.6667 12.8333C18.8214 12.8333 18.9698 12.8948 19.0791 13.0042C19.1885 13.1136 19.25 13.262 19.25 13.4167V14C19.25 14.1547 19.1885 14.3031 19.0791 14.4125C18.9698 14.5219 18.8214 14.5833 18.6667 14.5833ZM16.3333 21.5833C16.1786 21.5833 16.0303 21.5219 15.9209 21.4125C15.8115 21.3031 15.75 21.1547 15.75 21V20.4167C15.75 20.262 15.8115 20.1136 15.9209 20.0042C16.0303 19.8948 16.1786 19.8333 16.3333 19.8333C16.488 19.8333 16.6364 19.8948 16.7458 20.0042C16.8552 20.1136 16.9167 20.262 16.9167 20.4167V21C16.9167 21.1547 16.8552 21.3031 16.7458 21.4125C16.6364 21.5219 16.488 21.5833 16.3333 21.5833ZM16.9167 23.3333V23.9167C16.9167 24.0714 16.8552 24.2198 16.7458 24.3291C16.6364 24.4385 16.488 24.5 16.3333 24.5C16.1786 24.5 16.0303 24.4385 15.9209 24.3291C15.8115 24.2198 15.75 24.0714 15.75 23.9167V23.3333C15.75 23.1786 15.8115 23.0303 15.9209 22.9209C16.0303 22.8115 16.1786 22.75 16.3333 22.75C16.488 22.75 16.6364 22.8115 16.7458 22.9209C16.8552 23.0303 16.9167 23.1786 16.9167 23.3333ZM16.3333 18.6667C16.1786 18.6667 16.0303 18.6052 15.9209 18.4958C15.8115 18.3864 15.75 18.238 15.75 18.0833V17.5C15.75 17.3453 15.8115 17.1969 15.9209 17.0875C16.0303 16.9781 16.1786 16.9167 16.3333 16.9167C16.488 16.9167 16.6364 16.9781 16.7458 17.0875C16.8552 17.1969 16.9167 17.3453 16.9167 17.5V18.0833C16.9167 18.238 16.8552 18.3864 16.7458 18.4958C16.6364 18.6052 16.488 18.6667 16.3333 18.6667ZM16.3333 15.75C16.1786 15.75 16.0303 15.6885 15.9209 15.5791C15.8115 15.4698 15.75 15.3214 15.75 15.1667V14.5833C15.75 14.4286 15.8115 14.2803 15.9209 14.1709C16.0303 14.0615 16.1786 14 16.3333 14C16.488 14 16.6364 14.0615 16.7458 14.1709C16.8552 14.2803 16.9167 14.4286 16.9167 14.5833V15.1667C16.9167 15.3214 16.8552 15.4698 16.7458 15.5791C16.6364 15.6885 16.488 15.75 16.3333 15.75ZM14 21C13.8453 21 13.6969 20.9385 13.5875 20.8291C13.4781 20.7198 13.4167 20.5714 13.4167 20.4167V19.8333C13.4167 19.6786 13.4781 19.5303 13.5875 19.4209C13.6969 19.3115 13.8453 19.25 14 19.25C14.1547 19.25 14.3031 19.3115 14.4125 19.4209C14.5219 19.5303 14.5833 19.6786 14.5833 19.8333V20.4167C14.5833 20.5714 14.5219 20.7198 14.4125 20.8291C14.3031 20.9385 14.1547 21 14 21ZM14.5833 22.75V23.3333C14.5833 23.488 14.5219 23.6364 14.4125 23.7458C14.3031 23.8552 14.1547 23.9167 14 23.9167C13.8453 23.9167 13.6969 23.8552 13.5875 23.7458C13.4781 23.6364 13.4167 23.488 13.4167 23.3333V22.75C13.4167 22.5953 13.4781 22.4469 13.5875 22.3375C13.6969 22.2281 13.8453 22.1667 14 22.1667C14.1547 22.1667 14.3031 22.2281 14.4125 22.3375C14.5219 22.4469 14.5833 22.5953 14.5833 22.75ZM14 18.0833C13.8453 18.0833 13.6969 18.0219 13.5875 17.9125C13.4781 17.8031 13.4167 17.6547 13.4167 17.5V16.9167C13.4167 16.762 13.4781 16.6136 13.5875 16.5042C13.6969 16.3948 13.8453 16.3333 14 16.3333C14.1547 16.3333 14.3031 16.3948 14.4125 16.5042C14.5219 16.6136 14.5833 16.762 14.5833 16.9167V17.5C14.5833 17.6547 14.5219 17.8031 14.4125 17.9125C14.3031 18.0219 14.1547 18.0833 14 18.0833Z" fill="white"/>
</svg>
