<svg width="46" height="26" viewBox="0 0 46 26" fill="none" xmlns="http://www.w3.org/2000/svg">
<path d="M42.2572 9.52325C42.6166 8.18756 41.8251 6.81339 40.4892 6.45396C39.1534 6.09453 37.7792 6.88595 37.4198 8.22164C37.0604 9.55734 37.8519 10.9315 39.1878 11.2909C40.5236 11.6504 41.8978 10.859 42.2572 9.52325Z" fill="white"/>
<path d="M21.6654 19.6485C21.946 20.2976 22.6997 20.5966 23.349 20.316C25.0179 19.5956 26.6083 19.3431 28.0561 19.3421C30.4538 19.3412 32.4502 20.0498 33.565 20.5169C33.7264 20.5842 33.8937 20.6162 34.0582 20.6162C34.3138 20.6162 34.5627 20.5388 34.7725 20.3981C35.0173 20.3039 35.2758 20.1586 35.5487 19.9497C37.4055 18.2905 38.2541 17.0886 39.1777 14.9054C39.8404 13.3139 39.152 12.0133 38.2839 11.5598C37.4156 11.1064 36.2228 11.8211 35.7265 12.862C35.2758 13.6273 34.7396 14.5997 34.0989 15.529C34.6601 15.2627 35.1538 14.9007 35.5852 14.4389C36.2948 13.6704 36.5476 12.8629 36.5499 12.8549C36.6861 12.3753 37.1261 12.0422 37.6211 12.0422C37.7216 12.0422 37.8222 12.056 37.9199 12.0833C38.2065 12.1631 38.445 12.3494 38.5912 12.6084C38.7374 12.8674 38.7742 13.1676 38.6944 13.4544L38.694 13.4565L38.6904 13.468C38.6042 13.7566 38.2502 14.7799 37.3226 15.837C36.7731 16.4689 35.7151 17.42 34.0189 17.9398C33.3719 18.1381 32.6326 18.2739 31.7926 18.3048C31.7809 18.3053 31.7688 18.3054 31.7566 18.3055L31.748 18.3056C31.4603 18.3063 31.1836 18.1953 30.9762 17.9959C30.7689 17.7966 30.6469 17.5245 30.6362 17.2371C30.6331 17.1593 30.6382 17.0813 30.6515 17.0046C29.8554 16.8692 28.9856 16.7817 28.0564 16.7814C26.309 16.7806 24.351 17.0924 22.3334 17.9649C21.6838 18.2456 21.3849 18.9992 21.6654 19.6485Z" fill="white"/>
<path d="M31.7476 18.0832C31.7596 18.0832 31.7719 18.083 31.7841 18.0825C31.8231 18.081 31.86 18.0771 31.8984 18.0753C32.5408 18.0438 33.1296 17.9501 33.6656 17.8086C35.28 17.3822 36.4238 16.531 37.1547 15.6905C38.1513 14.5552 38.4549 13.4753 38.4795 13.395C38.5428 13.1674 38.5131 12.924 38.3969 12.7183C38.2807 12.5126 38.0875 12.3615 37.8599 12.2983C37.6332 12.2351 37.3906 12.2643 37.1854 12.3795C36.9801 12.4947 36.8289 12.6865 36.7647 12.913H36.7645L36.7643 12.9139C36.7527 12.9583 36.4875 13.79 35.7476 14.5912C35.3007 15.0696 34.7002 15.5481 33.8506 15.8788C33.2665 16.1063 32.5659 16.2646 31.7122 16.3024C31.4791 16.3115 31.2588 16.4116 31.0987 16.5814C30.9386 16.7511 30.8515 16.9769 30.8561 17.2102C30.8608 17.4435 30.9568 17.6656 31.1235 17.8289C31.2902 17.9922 31.5143 18.0835 31.7476 18.0832Z" fill="white"/>
<path d="M45.3827 10.0233C44.7442 9.5956 43.8796 9.76651 43.452 10.4054L35.7864 21.8518C34.9676 21.6094 34.1451 21.3796 33.3192 21.1624C32.3713 20.9139 31.3404 20.6643 30.366 20.4732C29.3863 20.2833 28.4833 20.1457 27.6844 20.1426C26.8807 20.145 26.0505 20.2886 25.2121 20.4841C22.7171 21.0758 20.1572 22.1909 20.1178 22.2052C19.4123 22.5101 19.0875 23.3294 19.3922 24.0349C19.6193 24.5605 20.1321 24.875 20.6706 24.8751C20.8313 24.8751 20.994 24.8451 21.1524 24.7865V25.5985H22.4885V24.2554C22.9705 24.073 23.4563 23.9011 23.9457 23.7397C24.6081 23.5218 25.3207 23.3127 25.984 23.1627C26.6451 23.0114 27.2639 22.9242 27.6844 22.9263C28.1381 22.9233 28.9467 23.029 29.8305 23.2045C31.1646 23.4658 32.708 23.8694 33.905 24.2063C34.3982 24.3449 34.8901 24.488 35.3807 24.6356C35.5622 24.6901 35.7057 24.7342 35.8036 24.7644C35.8614 24.7822 35.9 24.7944 35.9237 24.8017V25.5984H37.2598V24.5507C37.36 24.4672 37.4502 24.3696 37.5255 24.2571L45.7646 11.954C46.1924 11.3153 46.0215 10.451 45.3827 10.0233ZM33.335 7.61283C34.1943 6.84814 34.7149 5.84774 34.7149 4.75303C34.7149 2.34973 32.2062 0.401367 29.1113 0.401367C26.0165 0.401367 23.5077 2.34973 23.5077 4.75303C23.5077 7.15645 26.0165 9.10481 29.1113 9.10481C29.9646 9.10481 32.9776 10.7409 33.7015 10.4758C32.5093 9.46244 32.8279 8.0641 33.335 7.61283ZM12.7191 14.8802L14.9722 12.2855L14.1132 12.0655L12.3311 14.4582C12.4948 14.5628 12.6285 14.7082 12.7191 14.8802Z" fill="white"/>
<path d="M8.07604 8.84379C9.45728 8.76898 10.5164 7.58867 10.4416 6.20749C10.3668 4.82631 9.1864 3.76729 7.80516 3.84209C6.42392 3.9169 5.36484 5.09721 5.43964 6.47839C5.51444 7.85957 6.6948 8.91859 8.07604 8.84379Z" fill="white"/>
<path d="M8.56625 14.352C8.4566 14.2935 8.35218 14.2257 8.25416 14.1493C7.91323 13.8855 7.69689 13.5472 7.54057 13.148C7.34584 12.6437 7.28783 12.0612 7.28927 11.6259C7.28927 11.4218 7.30074 11.2502 7.31176 11.1345C7.31744 11.0768 7.32268 11.0326 7.32624 11.0052L7.33036 10.977L7.33058 10.976C7.36914 10.7429 7.31358 10.5041 7.17612 10.312C7.03866 10.1199 6.83054 9.99018 6.59751 9.95144C6.40114 9.91882 6.19951 9.95325 6.0251 10.0492C5.90639 10.1137 5.80397 10.2045 5.72564 10.3146C5.6473 10.4247 5.59512 10.5512 5.57306 10.6845C5.56738 10.7197 5.50804 11.0848 5.50781 11.6259C5.5126 12.3917 5.61414 13.5298 6.27429 14.5809C6.63507 15.1522 7.1407 15.6178 7.73976 15.9304C8.13057 16.1353 8.57616 16.2838 9.07296 16.3703C9.40008 16.4272 9.7488 16.458 10.1209 16.458L10.128 16.4579C10.365 16.4579 10.613 16.4441 10.8695 16.4203C11.0608 16.403 11.2516 16.38 11.4415 16.3512C11.5967 16.3274 11.7514 16.3003 11.9055 16.2699C12.1372 16.2243 12.3413 16.0885 12.4729 15.8924C12.6046 15.6963 12.6529 15.456 12.6074 15.2242C12.5964 15.1694 12.5804 15.1157 12.5594 15.0638C12.488 14.8863 12.361 14.7366 12.1975 14.6371C12.0076 14.52 11.7804 14.4789 11.5614 14.5221C11.0105 14.6304 10.5347 14.6767 10.128 14.6764C9.43104 14.6756 8.94414 14.5439 8.58685 14.3619C8.58017 14.3584 8.57282 14.3553 8.56625 14.352Z" fill="white"/>
<path d="M11.0719 17.0337C11.0135 17.0128 10.9558 16.996 10.8978 16.977L11.2216 16.6041C11.0458 16.6268 10.8694 16.6446 10.6926 16.6574L10.5344 16.8698C10.0527 16.7424 9.59144 16.6751 9.17313 16.6434C9.16868 16.632 9.16367 16.6211 9.15922 16.6096C8.59895 16.525 8.08867 16.3645 7.63618 16.1272C7.00283 15.7961 6.46811 15.3037 6.08608 14.6998C5.55443 13.8533 5.29267 12.8486 5.28509 11.627C5.28532 11.108 5.33731 10.7473 5.35335 10.6489C5.3953 10.3891 5.5283 10.1526 5.72856 9.98184C5.92881 9.81103 6.18329 9.71701 6.4465 9.71657L6.45084 9.71635C6.51196 9.71635 6.57354 9.72136 6.63411 9.73138C7.23969 9.83214 7.65065 10.4067 7.55045 11.0124L7.54688 11.036C7.54376 11.0599 7.53875 11.1017 7.53352 11.1562C7.51901 11.3123 7.51184 11.4689 7.51203 11.6256C7.51103 11.9335 7.54042 12.5288 7.74852 13.0676C7.93212 13.5367 8.18142 13.8546 8.54417 14.0811C8.58514 14.1068 8.62656 14.1319 8.67054 14.1553C8.76061 14.2023 8.85637 14.243 8.95713 14.2788C9.10154 14.2926 9.2494 14.3014 9.40272 14.3014H9.41218C10.0401 14.3012 10.7447 14.1892 11.5522 13.9484C11.6108 13.9309 11.6675 13.9074 11.7213 13.8783L11.9216 14.1265L12.3219 14.3861L12.1599 13.9342L11.9608 13.6876C12.1595 13.4644 12.2424 13.1473 12.1507 12.8401C12.1173 12.728 12.0621 12.6236 11.9883 12.5329C11.9145 12.4421 11.8236 12.3668 11.7207 12.3112C11.6178 12.2556 11.5049 12.2208 11.3886 12.2089C11.2722 12.1969 11.1546 12.208 11.0426 12.2415C10.9733 12.2622 10.9065 12.2806 10.8401 12.2988L10.2304 11.5432L9.99216 11.7356L10.5127 12.3806C10.0766 12.4795 9.71069 12.52 9.41196 12.5199C8.91627 12.5187 8.60808 12.417 8.39207 12.2939C8.37582 12.2845 8.36157 12.2739 8.34609 12.2639C8.31659 11.9151 8.29064 11.5835 8.26336 11.2788C8.26136 10.1255 7.49021 8.96836 6.5113 9.00577C5.53249 9.04329 4.35317 9.92311 4.26944 11.6449C4.16801 14.0133 4.4193 15.4629 5.38541 17.758C5.87264 18.7066 6.49526 19.0442 7.12334 19.1022C7.29641 19.1487 7.47759 19.1564 7.65399 19.1249C7.6973 19.1178 8.03845 19.066 8.5062 19.0663C9.0147 19.0648 9.66916 19.1305 10.2448 19.339C10.8262 19.5517 11.3077 19.87 11.6625 20.4177C12.6369 21.9279 12.6963 23.3195 12.6951 23.5994C12.6951 23.6215 12.6949 23.6371 12.6946 23.6445L12.6944 23.6493C12.6613 24.3205 13.1763 24.8942 13.8485 24.9321C13.872 24.9335 13.8956 24.9341 13.9188 24.9341C14.5637 24.9343 15.1037 24.4302 15.1407 23.7785C15.1419 23.7572 15.1448 23.6956 15.1448 23.5994C15.1436 23.02 15.0397 21.1464 13.7232 19.0932C13.0284 18.0083 12.0199 17.3696 11.0719 17.0337Z" fill="white"/>
<path d="M6.68048 19.7558C0.821142 19.7558 3.80041 15.3219 3.39212 13.3178C2.98384 11.3137 0 9.62371 0 11.2568C0 12.8897 1.96707 25.3055 1.96707 25.3055H2.28261V25.5984H3.56303V25.3055H10.1322V25.5984H11.4126V25.3055H11.728C11.728 25.3055 12.6929 19.7558 6.68048 19.7558ZM17.7179 1.08984C15.3503 1.08984 13.4312 2.58026 13.4312 4.41873C13.4312 5.25612 13.8295 6.02137 14.4867 6.60636C14.8748 6.95163 15.1185 8.02129 14.2065 8.79656C14.7602 8.9992 17.0651 7.74772 17.7179 7.74772C20.0854 7.74772 22.0045 6.25719 22.0045 4.41873C22.0045 2.58026 20.0854 1.08984 17.7179 1.08984Z" fill="white"/>
</svg>
