<svg width="35" height="35" viewBox="0 0 35 35" fill="none" xmlns="http://www.w3.org/2000/svg">
<g clip-path="url(#clip0_740_497)">
<path fill-rule="evenodd" clip-rule="evenodd" d="M12.3849 34.9934C11.5967 34.9478 10.8339 34.6981 10.1714 34.2687C9.50884 33.8393 8.96934 33.2451 8.60581 32.5443C8.73774 32.5565 8.87309 32.5629 9.00844 32.5629C9.64741 32.563 10.2791 32.4268 10.8613 32.1636C11.4435 31.9003 11.9629 31.5159 12.3849 31.0361C12.4228 30.9938 12.4521 30.9444 12.4708 30.8907C12.4896 30.837 12.4975 30.7801 12.4941 30.7234C12.4907 30.6666 12.4761 30.6111 12.4511 30.56C12.4261 30.5089 12.3912 30.4633 12.3485 30.4258C12.3057 30.3883 12.2559 30.3597 12.202 30.3416C12.1481 30.3235 12.0912 30.3162 12.0345 30.3203C11.9777 30.3243 11.9224 30.3396 11.8716 30.3652C11.8208 30.3908 11.7756 30.4262 11.7387 30.4694C11.4051 30.8517 10.9946 31.1593 10.5342 31.3723C10.0737 31.5852 9.57347 31.6987 9.06617 31.7053C8.55887 31.712 8.05587 31.6116 7.58997 31.4107C7.12408 31.2099 6.70576 30.9131 6.36229 30.5397C6.01882 30.1663 5.75792 29.7247 5.5966 29.2437C5.43528 28.7627 5.37717 28.2531 5.42606 27.7481C5.47495 27.2431 5.62974 26.7541 5.88033 26.313C6.13093 25.8718 6.4717 25.4885 6.88042 25.1879C6.96786 25.1186 7.02496 25.018 7.0397 24.9074C7.05444 24.7967 7.02567 24.6847 6.95944 24.5949C6.89321 24.5051 6.7947 24.4445 6.68466 24.4258C6.57463 24.4072 6.46166 24.4321 6.36957 24.4951C5.48149 25.1513 4.86703 26.1124 4.64411 27.1938C3.999 26.7307 3.50655 26.0858 3.22964 25.3415C2.95273 24.5972 2.90393 23.7873 3.08946 23.0151C3.275 22.2429 3.68645 21.5436 4.27129 21.0063C4.85613 20.4691 5.58781 20.1183 6.37292 19.9988C6.42879 19.9904 6.48245 19.971 6.53083 19.9418C6.57922 19.9126 6.62138 19.8742 6.65491 19.8287C6.68845 19.7833 6.7127 19.7316 6.72628 19.6768C6.73986 19.6219 6.7425 19.565 6.73406 19.5091C6.72562 19.4532 6.70625 19.3996 6.67707 19.3512C6.64789 19.3028 6.60947 19.2606 6.56399 19.2271C6.51852 19.1936 6.46688 19.1693 6.41203 19.1557C6.35719 19.1421 6.3002 19.1395 6.24433 19.1479C5.61019 19.2431 5.00129 19.4634 4.45303 19.796C3.90476 20.1285 3.42807 20.5668 3.05065 21.0852C2.35446 20.7794 1.76235 20.2776 1.3466 19.641C0.930859 19.0043 0.709473 18.2604 0.709473 17.5C0.709473 16.7397 0.930859 15.9958 1.3466 15.3591C1.76235 14.7225 2.35446 14.2206 3.05065 13.9149C3.42817 14.4332 3.9049 14.8713 4.45314 15.2039C5.00139 15.5364 5.61024 15.7568 6.24433 15.8521C6.26564 15.8551 6.28713 15.8567 6.30866 15.8568C6.41737 15.8571 6.52215 15.8162 6.60195 15.7424C6.68175 15.6686 6.73063 15.5673 6.73877 15.4589C6.74691 15.3505 6.71371 15.243 6.64583 15.1581C6.57796 15.0732 6.48045 15.0171 6.37292 15.0012C5.58781 14.8817 4.85613 14.531 4.27129 13.9937C3.68645 13.4565 3.275 12.7571 3.08946 11.9849C2.90393 11.2128 2.95273 10.4028 3.22964 9.65851C3.50655 8.9142 3.999 8.26931 4.64411 7.80617C4.86718 8.88759 5.48161 9.84861 6.36957 10.5049C6.44282 10.5597 6.53187 10.5891 6.62332 10.5889C6.71369 10.5884 6.80163 10.5596 6.87475 10.5065C6.94787 10.4534 7.00247 10.3786 7.03087 10.2928C7.05927 10.207 7.06002 10.1145 7.03303 10.0283C7.00604 9.94201 6.95266 9.86641 6.88042 9.81211C6.47237 9.51131 6.13227 9.12792 5.88226 8.68693C5.63224 8.24594 5.47793 7.75723 5.42936 7.25263C5.38079 6.74802 5.43906 6.23885 5.60038 5.75827C5.76169 5.27769 6.02243 4.83647 6.36561 4.46337C6.70879 4.09026 7.12672 3.79363 7.59217 3.5928C8.05762 3.39196 8.56016 3.29142 9.06706 3.29773C9.57395 3.30404 10.0738 3.41706 10.5341 3.62942C10.9944 3.84178 11.4049 4.14872 11.7387 4.53025C11.7757 4.57303 11.8209 4.60805 11.8716 4.6333C11.9222 4.65856 11.9774 4.67356 12.0339 4.67743C12.0904 4.6813 12.1471 4.67396 12.2007 4.65585C12.2543 4.63774 12.3039 4.60921 12.3464 4.5719C12.389 4.53458 12.4238 4.48922 12.4488 4.43842C12.4738 4.38762 12.4885 4.33238 12.492 4.27588C12.4956 4.21938 12.488 4.16273 12.4696 4.10919C12.4512 4.05565 12.4224 4.00627 12.3849 3.9639C11.9177 3.43335 11.3321 3.02033 10.6755 2.7583C10.019 2.49627 9.3099 2.3926 8.60581 2.45568C9.03549 1.6206 9.71426 0.939822 10.5481 0.507688C11.3819 0.0755534 12.3295 -0.0865456 13.2595 0.0438505C14.1896 0.174247 15.056 0.590682 15.7389 1.23546C16.4217 1.88023 16.8871 2.72142 17.0705 3.64247V10.1926H15.2842L13.9275 7.84363C14.1799 7.59301 14.3339 7.26003 14.3613 6.9054C14.3887 6.55076 14.2878 6.19807 14.077 5.91161C13.8661 5.62516 13.5593 5.42401 13.2126 5.34482C12.8658 5.26564 12.5021 5.31369 12.1878 5.48023C11.8735 5.64677 11.6295 5.92069 11.5003 6.25209C11.3711 6.58348 11.3652 6.95028 11.4838 7.28562C11.6024 7.62096 11.8376 7.90252 12.1464 8.07898C12.4553 8.25544 12.8172 8.31505 13.1663 8.24695L14.6617 10.8381C14.6996 10.9033 14.7539 10.9574 14.8192 10.9952C14.8844 11.0329 14.9584 11.053 15.0338 11.0533H17.0705V13.8526H13.9614L11.3665 11.3233C11.5754 11.0358 11.6743 10.6829 11.6451 10.3288C11.6158 9.97459 11.4605 9.64268 11.2072 9.39336C10.954 9.14406 10.6197 8.99391 10.2651 8.97022C9.91054 8.94653 9.55923 9.05088 9.27508 9.2643C8.99093 9.47771 8.79281 9.78601 8.71673 10.1331C8.64066 10.4803 8.69169 10.8432 8.86054 11.1559C9.02939 11.4686 9.30486 11.7103 9.63684 11.837C9.96882 11.9638 10.3353 11.9672 10.6696 11.8467L13.4875 14.5908C13.567 14.6687 13.6738 14.7125 13.7852 14.7129H17.0703V17.07H9.81023C9.7071 16.7316 9.48588 16.4416 9.18686 16.2527C8.88784 16.0638 8.53092 15.9885 8.18109 16.0407C7.83125 16.0928 7.51178 16.2688 7.28085 16.5368C7.04991 16.8047 6.92288 17.1466 6.92288 17.5003C6.92288 17.854 7.04991 18.1959 7.28085 18.4638C7.51178 18.7317 7.83125 18.9078 8.18109 18.9599C8.53092 19.012 8.88784 18.9368 9.18686 18.7479C9.48588 18.559 9.7071 18.2689 9.81023 17.9306H17.0705V20.288H13.7855C13.6741 20.2882 13.5672 20.3321 13.4878 20.4101L10.6696 23.1546C10.3369 23.035 9.97233 23.0388 9.64217 23.1652C9.31202 23.2917 9.03816 23.5323 8.87034 23.8434C8.70252 24.1546 8.65186 24.5156 8.72759 24.8609C8.80331 25.2063 9.00038 25.513 9.283 25.7253C9.56563 25.9377 9.91505 26.0417 10.2678 26.0183C10.6206 25.995 10.9532 25.8459 11.2054 25.5981C11.4576 25.3504 11.6125 25.0204 11.6421 24.6681C11.6716 24.3158 11.5739 23.9646 11.3665 23.6783L13.9614 21.149H17.0705V23.9482H15.0338C14.9584 23.9485 14.8844 23.9685 14.8191 24.0062C14.7538 24.044 14.6996 24.0982 14.6617 24.1634L13.1662 26.7536C13.0737 26.7358 12.9797 26.7266 12.8854 26.7263C12.5441 26.7263 12.2134 26.8446 11.9495 27.0612C11.6857 27.2777 11.5051 27.5791 11.4386 27.9139C11.3721 28.2487 11.4237 28.5961 11.5847 28.8971C11.7457 29.1981 12.0061 29.4339 12.3216 29.5644C12.637 29.6948 12.9879 29.7119 13.3144 29.6126C13.641 29.5133 13.923 29.3039 14.1125 29.0199C14.3019 28.736 14.387 28.3951 14.3532 28.0555C14.3195 27.7158 14.169 27.3984 13.9274 27.1573L15.284 24.8084H17.0704V31.3578C16.8532 32.424 16.2611 33.377 15.4015 34.0441C14.5418 34.7111 13.4716 35.0479 12.3849 34.9934ZM12.8856 7.4131C13.0072 7.413 13.1261 7.37682 13.2272 7.30915C13.3283 7.24148 13.4071 7.14536 13.4536 7.03293C13.5001 6.9205 13.5122 6.79682 13.4884 6.67751C13.4646 6.5582 13.4059 6.44863 13.3199 6.36264C13.2338 6.27665 13.1242 6.21811 13.0049 6.19442C12.8855 6.17072 12.7619 6.18294 12.6495 6.22952C12.5371 6.2761 12.441 6.35496 12.3735 6.45612C12.3059 6.55728 12.2698 6.67621 12.2698 6.79787C12.2702 6.96101 12.3352 7.11735 12.4506 7.23266C12.566 7.34797 12.7224 7.41285 12.8856 7.4131ZM10.1721 11.0736C10.2937 11.0735 10.4126 11.0373 10.5137 10.9697C10.6148 10.902 10.6936 10.8059 10.7401 10.6934C10.7866 10.581 10.7987 10.4573 10.7749 10.338C10.7511 10.2187 10.6924 10.1091 10.6064 10.0231C10.5203 9.93716 10.4107 9.87862 10.2913 9.85493C10.172 9.83123 10.0483 9.84345 9.93595 9.89003C9.82356 9.93661 9.7275 10.0155 9.65992 10.1166C9.59235 10.2178 9.55628 10.3367 9.55628 10.4584C9.55623 10.5392 9.57213 10.6193 9.60307 10.694C9.63401 10.7687 9.67937 10.8366 9.73657 10.8937C9.79377 10.9509 9.86167 10.9962 9.9364 11.027C10.0111 11.0579 10.0912 11.0737 10.1721 11.0736ZM9.01179 17.5002C9.01156 17.3787 8.97531 17.2601 8.90762 17.1592C8.83993 17.0583 8.74384 16.9798 8.63152 16.9336C8.51919 16.8873 8.39567 16.8754 8.27658 16.8994C8.15749 16.9233 8.04819 16.9821 7.96249 17.0682C7.8768 17.1543 7.81857 17.2639 7.79516 17.3831C7.77175 17.5023 7.78422 17.6257 7.831 17.7378C7.87777 17.8499 7.95674 17.9457 8.05793 18.0129C8.15911 18.0801 8.27796 18.1158 8.39943 18.1154C8.56221 18.115 8.71816 18.05 8.83299 17.9346C8.94782 17.8192 9.01214 17.663 9.01179 17.5002ZM10.788 24.5423C10.7882 24.4205 10.7522 24.3013 10.6847 24.1999C10.6172 24.0985 10.521 24.0194 10.4085 23.9727C10.296 23.9259 10.1722 23.9136 10.0527 23.9372C9.93315 23.9609 9.82333 24.0195 9.73711 24.1055C9.65089 24.1916 9.59215 24.3013 9.56831 24.4208C9.54448 24.5403 9.55662 24.6642 9.60321 24.7768C9.6498 24.8893 9.72873 24.9856 9.83003 25.0533C9.93132 25.121 10.0504 25.1571 10.1723 25.1571C10.2531 25.1572 10.3331 25.1414 10.4078 25.1106C10.4825 25.0797 10.5504 25.0345 10.6076 24.9774C10.6648 24.9203 10.7101 24.8524 10.7411 24.7778C10.772 24.7032 10.788 24.6231 10.788 24.5423ZM13.5013 28.2016C13.5013 28.0798 13.4652 27.9607 13.3975 27.8595C13.3299 27.7582 13.2337 27.6793 13.1212 27.6326C13.0087 27.586 12.8849 27.5738 12.7654 27.5976C12.6459 27.6213 12.5362 27.68 12.4501 27.7661C12.364 27.8522 12.3053 27.962 12.2816 28.0814C12.2578 28.2009 12.27 28.3247 12.3166 28.4372C12.3632 28.5497 12.4422 28.6459 12.5434 28.7136C12.6447 28.7812 12.7638 28.8173 12.8856 28.8173C13.0488 28.817 13.2052 28.7521 13.3206 28.6367C13.436 28.5212 13.501 28.3648 13.5013 28.2016ZM31.9497 21.0854C31.572 20.5673 31.0952 20.1293 30.547 19.7967C29.9988 19.4642 29.39 19.2438 28.756 19.1482C28.7002 19.1397 28.6432 19.1424 28.5883 19.1559C28.5335 19.1695 28.4819 19.1938 28.4364 19.2273C28.3909 19.2608 28.3525 19.303 28.3233 19.3514C28.2941 19.3998 28.2747 19.4534 28.2663 19.5093C28.2579 19.5652 28.2605 19.6221 28.2741 19.677C28.2877 19.7318 28.3119 19.7835 28.3455 19.829C28.379 19.8744 28.4212 19.9129 28.4695 19.942C28.5179 19.9712 28.5716 19.9906 28.6274 19.999C29.4126 20.1185 30.1442 20.4693 30.7291 21.0065C31.3139 21.5438 31.7254 22.2431 31.9109 23.0153C32.0964 23.7875 32.0476 24.5974 31.7707 25.3417C31.4938 26.086 31.0014 26.7309 30.3563 27.1941C30.132 26.1131 29.5178 25.1525 28.6308 24.4953C28.5855 24.4594 28.5334 24.4329 28.4777 24.4175C28.4219 24.4022 28.3636 24.3982 28.3063 24.4058C28.249 24.4135 28.1938 24.4326 28.144 24.462C28.0942 24.4914 28.0509 24.5306 28.0166 24.5771C27.9822 24.6237 27.9577 24.6767 27.9443 24.7329C27.9309 24.7892 27.9289 24.8476 27.9386 24.9046C27.9482 24.9616 27.9692 25.0161 28.0004 25.0648C28.0316 25.1135 28.0722 25.1555 28.1199 25.1881C28.5282 25.4889 28.8684 25.8722 29.1186 26.3133C29.3687 26.7543 29.5232 27.2431 29.5718 27.7478C29.6204 28.2524 29.5622 28.7617 29.4009 29.2424C29.2396 29.7231 28.9788 30.1644 28.6355 30.5376C28.2923 30.9107 27.8742 31.2074 27.4087 31.4082C26.9431 31.609 26.4404 31.7095 25.9335 31.7031C25.4265 31.6967 24.9265 31.5835 24.4662 31.371C24.0058 31.1585 23.5954 30.8514 23.2617 30.4696C23.2245 30.4272 23.1793 30.3925 23.1287 30.3676C23.0781 30.3426 23.023 30.3279 22.9667 30.3242C22.9104 30.3205 22.8539 30.3279 22.8005 30.3461C22.7471 30.3642 22.6977 30.3927 22.6553 30.4299C22.6129 30.4671 22.5782 30.5123 22.5532 30.5629C22.5283 30.6135 22.5135 30.6686 22.5098 30.7249C22.5062 30.7812 22.5136 30.8377 22.5317 30.8911C22.5499 30.9446 22.5784 30.9939 22.6156 31.0363C23.0374 31.5163 23.5568 31.9007 24.139 32.164C24.7213 32.4273 25.3529 32.5633 25.9919 32.5631C26.1273 32.5631 26.2626 32.5567 26.3946 32.5445C25.9649 33.3796 25.2862 34.0603 24.4524 34.4925C23.6186 34.9246 22.671 35.0868 21.741 34.9564C20.8109 34.8261 19.9445 34.4097 19.2616 33.7649C18.5788 33.1202 18.1133 32.2791 17.9298 31.358V24.8086H19.7162L21.0728 27.1575C20.8313 27.3987 20.6808 27.7161 20.647 28.0558C20.6133 28.3954 20.6984 28.7362 20.8878 29.0202C21.0772 29.3041 21.3592 29.5136 21.6858 29.6129C22.0123 29.7122 22.3632 29.6951 22.6786 29.5647C22.9941 29.4342 23.2545 29.1984 23.4155 28.8974C23.5765 28.5965 23.6281 28.249 23.5616 27.9142C23.4951 27.5794 23.3146 27.2781 23.0508 27.0615C22.7869 26.8449 22.4562 26.7265 22.1149 26.7265C22.0206 26.7269 21.9266 26.7361 21.834 26.7539L20.3387 24.1634C20.3008 24.0982 20.2465 24.044 20.1813 24.0062C20.116 23.9685 20.0419 23.9485 19.9665 23.9482H17.9298V21.1487H21.039L23.6339 23.678C23.4247 23.9657 23.3258 24.3188 23.355 24.6733C23.3843 25.0277 23.5397 25.3599 23.7932 25.6094C24.0466 25.859 24.3812 26.0092 24.736 26.033C25.0909 26.0567 25.4425 25.9522 25.7269 25.7386C26.0113 25.525 26.2095 25.2165 26.2857 24.8691C26.3618 24.5217 26.3107 24.1585 26.1417 23.8455C25.9727 23.5326 25.697 23.2907 25.3647 23.1639C25.0324 23.037 24.6657 23.0336 24.3311 23.1543L21.5129 20.4101C21.4326 20.3315 21.3245 20.2876 21.2121 20.288H17.9298V17.9309H25.1901C25.2933 18.2692 25.5145 18.5592 25.8135 18.7482C26.1125 18.9371 26.4694 19.0123 26.8193 18.9602C27.1691 18.908 27.4886 18.732 27.7195 18.4641C27.9505 18.1962 28.0775 17.8543 28.0775 17.5006C28.0775 17.1469 27.9505 16.8049 27.7195 16.537C27.4886 16.2691 27.1691 16.0931 26.8193 16.0409C26.4694 15.9888 26.1125 16.064 25.8135 16.253C25.5145 16.4419 25.2933 16.7319 25.1901 17.0702H17.9298V14.7129H21.2115C21.3239 14.7131 21.4319 14.6693 21.5123 14.5908L24.3305 11.846C24.6632 11.9653 25.0276 11.9613 25.3576 11.8347C25.6876 11.7081 25.9612 11.4674 26.1288 11.1563C26.2964 10.8452 26.3468 10.4842 26.271 10.1391C26.1951 9.79388 25.9979 9.48738 25.7153 9.27521C25.4326 9.06304 25.0833 8.95928 24.7307 8.98277C24.378 9.00627 24.0455 9.15546 23.7935 9.40325C23.5415 9.65105 23.3868 9.981 23.3574 10.3332C23.328 10.6854 23.4259 11.0364 23.6332 11.3226L21.0384 13.8519H17.9298V11.053H19.9665C20.0419 11.0526 20.1159 11.0326 20.1812 10.9948C20.2465 10.9571 20.3008 10.9029 20.3387 10.8378L21.8342 8.24661C22.1824 8.31428 22.5434 8.25459 22.8513 8.07843C23.1592 7.90227 23.3936 7.62136 23.5118 7.28687C23.6299 6.95237 23.624 6.58656 23.4951 6.25607C23.3661 5.92558 23.1228 5.65241 22.8093 5.48631C22.4958 5.32022 22.1331 5.27226 21.7873 5.35117C21.4414 5.43008 21.1354 5.63061 20.925 5.91623C20.7146 6.20185 20.6138 6.55355 20.6409 6.90726C20.6681 7.26097 20.8214 7.59315 21.073 7.84329L19.7162 10.1926H17.9298V3.64247C18.1133 2.72144 18.5787 1.88028 19.2616 1.23553C19.9444 0.590793 20.8109 0.174393 21.7409 0.0440277C22.671 -0.0863376 23.6186 0.0757867 24.4524 0.507938C25.2862 0.940088 25.9649 1.62087 26.3946 2.45596C25.6905 2.39286 24.9814 2.49653 24.3249 2.75857C23.6683 3.0206 23.0827 3.43362 22.6156 3.96417C22.5776 4.00647 22.5484 4.05589 22.5296 4.10957C22.5109 4.16325 22.5029 4.22012 22.5063 4.27688C22.5097 4.33364 22.5243 4.38916 22.5493 4.44023C22.5744 4.49129 22.6092 4.53689 22.652 4.57437C22.6948 4.61185 22.7445 4.64047 22.7984 4.65857C22.8523 4.67667 22.9093 4.68389 22.966 4.67981C23.0227 4.67573 23.0781 4.66044 23.1288 4.63481C23.1796 4.60918 23.2248 4.57374 23.2617 4.53053C23.5953 4.14826 24.0058 3.84062 24.4663 3.62765C24.9268 3.41469 25.427 3.3012 25.9344 3.29458C26.4417 3.28795 26.9447 3.38835 27.4106 3.58922C27.8765 3.79009 28.2949 4.08692 28.6383 4.46034C28.9818 4.83377 29.2427 5.2754 29.404 5.75645C29.5653 6.23749 29.6234 6.74714 29.5745 7.25214C29.5256 7.75715 29.3708 8.24617 29.1201 8.68732C28.8695 9.12846 28.5287 9.51182 28.1199 9.81238C28.0471 9.86635 27.9931 9.94195 27.9657 10.0284C27.9383 10.1149 27.9389 10.2077 27.9674 10.2938C27.9959 10.3799 28.0509 10.4548 28.1244 10.5079C28.198 10.5609 28.2864 10.5893 28.3771 10.5891C28.4685 10.5894 28.5576 10.5599 28.6308 10.5052C29.5177 9.8479 30.1319 8.88732 30.3563 7.80644C31.0014 8.26958 31.4938 8.91448 31.7707 9.65878C32.0476 10.4031 32.0964 11.213 31.9109 11.9852C31.7254 12.7574 31.3139 13.4567 30.7291 13.994C30.1442 14.5312 29.4126 14.882 28.6274 15.0015C28.5199 15.0174 28.4224 15.0735 28.3545 15.1584C28.2867 15.2433 28.2535 15.3508 28.2616 15.4592C28.2697 15.5676 28.3186 15.6689 28.3984 15.7427C28.4782 15.8165 28.583 15.8574 28.6917 15.8571C28.7132 15.857 28.7347 15.8554 28.756 15.8523C29.39 15.7566 29.9987 15.5361 30.5469 15.2036C31.0951 14.8711 31.5719 14.4332 31.9497 13.9152C32.6459 14.2209 33.238 14.7227 33.6538 15.3594C34.0695 15.996 34.2909 16.7399 34.2909 17.5003C34.2909 18.2607 34.0695 19.0046 33.6538 19.6412C33.238 20.2779 32.6459 20.7797 31.9497 21.0854ZM22.1149 27.5871C21.9932 27.5872 21.8742 27.6234 21.7731 27.6911C21.672 27.7588 21.5932 27.855 21.5467 27.9674C21.5002 28.0799 21.4882 28.2036 21.512 28.323C21.5359 28.4423 21.5946 28.5519 21.6808 28.6378C21.7669 28.7238 21.8766 28.7823 21.996 28.8059C22.1154 28.8295 22.2391 28.8172 22.3514 28.7705C22.4638 28.7238 22.5598 28.6448 22.6273 28.5435C22.6948 28.4422 22.7307 28.3232 22.7306 28.2015C22.7305 28.1207 22.7146 28.0408 22.6836 27.9661C22.6526 27.8915 22.6073 27.8238 22.5501 27.7667C22.4929 27.7096 22.425 27.6644 22.3503 27.6336C22.2757 27.6028 22.1956 27.587 22.1149 27.5871ZM24.8283 23.9273C24.7067 23.9274 24.5878 23.9636 24.4867 24.0312C24.3855 24.0989 24.3068 24.195 24.2603 24.3075C24.2138 24.4199 24.2017 24.5436 24.2255 24.6629C24.2493 24.7822 24.3079 24.8918 24.394 24.9778C24.4801 25.0637 24.5897 25.1223 24.709 25.146C24.8284 25.1697 24.952 25.1575 25.0644 25.1109C25.1768 25.0643 25.2729 24.9854 25.3404 24.8843C25.408 24.7831 25.4441 24.6642 25.4441 24.5425C25.4442 24.4617 25.4283 24.3816 25.3973 24.3069C25.3664 24.2322 25.321 24.1643 25.2638 24.1072C25.2066 24.05 25.1387 24.0047 25.064 23.9738C24.9893 23.943 24.9092 23.9272 24.8283 23.9273ZM25.9852 17.5002C25.985 17.622 26.0211 17.7411 26.0887 17.8425C26.1563 17.9438 26.2524 18.0228 26.3649 18.0695C26.4774 18.1162 26.6012 18.1285 26.7207 18.1048C26.8402 18.0811 26.95 18.0225 27.0362 17.9364C27.1223 17.8503 27.181 17.7406 27.2048 17.6211C27.2286 17.5016 27.2165 17.3778 27.1699 17.2652C27.1233 17.1527 27.0444 17.0565 26.9431 16.9888C26.8418 16.9211 26.7227 16.885 26.6009 16.885C26.4378 16.8853 26.2815 16.9502 26.1661 17.0655C26.0507 17.1808 25.9856 17.3371 25.9852 17.5002ZM24.2124 10.4582C24.2123 10.58 24.2483 10.6991 24.3159 10.8004C24.3835 10.9018 24.4796 10.9808 24.5922 11.0275C24.7047 11.0742 24.8285 11.0864 24.948 11.0627C25.0675 11.039 25.1773 10.9804 25.2634 10.8943C25.3496 10.8082 25.4083 10.6985 25.4321 10.579C25.4559 10.4595 25.4437 10.3357 25.3971 10.2232C25.3505 10.1106 25.2716 10.0144 25.1703 9.94672C25.069 9.87904 24.9499 9.84293 24.8281 9.84294C24.7473 9.84283 24.6672 9.85867 24.5925 9.88954C24.5177 9.92042 24.4498 9.96572 24.3927 10.0229C24.3355 10.08 24.2901 10.1479 24.2592 10.2226C24.2282 10.2973 24.2123 10.3773 24.2124 10.4582ZM21.4992 6.79828C21.4991 6.92009 21.5351 7.0392 21.6027 7.14054C21.6703 7.24187 21.7664 7.32089 21.879 7.36758C21.9915 7.41427 22.1153 7.42654 22.2348 7.40284C22.3543 7.37914 22.464 7.32054 22.5502 7.23444C22.6364 7.14835 22.6951 7.03863 22.7189 6.91916C22.7427 6.7997 22.7305 6.67585 22.6839 6.5633C22.6374 6.45075 22.5584 6.35455 22.4572 6.28686C22.3559 6.21917 22.2368 6.18305 22.115 6.18305C22.0341 6.18289 21.954 6.1987 21.8793 6.22956C21.8045 6.26041 21.7366 6.30572 21.6794 6.36287C21.6222 6.42002 21.5769 6.4879 21.5459 6.56262C21.515 6.63733 21.4991 6.71742 21.4992 6.79828Z" fill="white"/>
</g>
<defs>
<clipPath id="clip0_740_497">
<rect width="35" height="35" fill="white"/>
</clipPath>
</defs>
</svg>
