<svg width="35" height="35" viewBox="0 0 35 35" fill="none" xmlns="http://www.w3.org/2000/svg">
<path d="M17.4998 2.9165C15.8772 2.91623 14.2926 3.40794 12.9552 4.32673C11.6177 5.24553 10.5903 6.54824 10.0084 8.06296C9.40346 7.88853 8.79019 7.74446 8.17088 7.6313C6.8972 7.40071 5.60505 7.28745 4.31067 7.29296L4.05984 7.2988L3.98984 7.30171L3.96067 7.30317C3.69161 7.31786 3.43744 7.43136 3.2469 7.6219C3.05636 7.81244 2.94286 8.06661 2.92817 8.33567L2.9238 8.4363C2.91382 8.81738 2.91626 9.1987 2.93109 9.57963C2.96025 10.3278 3.04192 11.369 3.2563 12.5459C3.45171 13.6178 3.7638 14.8282 4.26255 16.0415H4.00442C3.71589 16.0415 3.43917 16.1561 3.23515 16.3601C3.03112 16.5642 2.9165 16.8409 2.9165 17.1294V17.4998C2.9165 19.0238 3.14984 20.4938 3.58442 21.8748H31.4153C31.8592 20.459 32.0845 18.9837 32.0832 17.4998V17.1294C32.0832 16.8409 31.9686 16.5642 31.7645 16.3601C31.5605 16.1561 31.2838 16.0415 30.9953 16.0415H30.6205C30.6617 14.432 30.1556 12.8562 29.185 11.5717C28.2144 10.2872 26.8367 9.36995 25.2771 8.97005C24.8388 7.23944 23.8358 5.70446 22.4269 4.60803C21.018 3.5116 19.2836 2.91636 17.4984 2.9165M17.4984 5.104C18.6649 5.10418 19.8045 5.454 20.7703 6.1083C21.736 6.76259 22.4834 7.69134 22.9161 8.77463C21.662 8.88003 20.4584 9.31623 19.428 10.0387C18.3975 10.7612 17.5772 11.7441 17.0507 12.8871C16.6574 12.3045 16.2096 11.7605 15.7134 11.2625C14.6211 10.1703 13.3509 9.3813 12.0646 8.80817C12.4931 7.71583 13.2409 6.77805 14.2106 6.11725C15.1802 5.45645 16.3265 5.10333 17.4998 5.104M28.4359 15.8592C28.4359 15.9205 28.4344 15.9817 28.4315 16.0415H18.6184L18.5921 15.9686V15.8592C18.5921 14.5539 19.1107 13.302 20.0337 12.3789C20.9567 11.4559 22.2086 10.9373 23.514 10.9373C24.8194 10.9373 26.0713 11.4559 26.9943 12.3789C27.9173 13.302 28.4359 14.5539 28.4359 15.8592ZM14.1675 12.8098C15.1053 13.7461 15.7848 14.8734 16.2748 16.0415H13.2123L10.6165 13.4457C10.5164 13.3382 10.3956 13.252 10.2615 13.1922C10.1273 13.1325 9.98246 13.1003 9.8356 13.0977C9.68874 13.0951 9.54287 13.1221 9.40667 13.1772C9.27048 13.2322 9.14677 13.314 9.04291 13.4179C8.93905 13.5218 8.85717 13.6455 8.80216 13.7817C8.74715 13.9179 8.72013 14.0637 8.72272 14.2106C8.72532 14.3575 8.75746 14.5023 8.81724 14.6365C8.87702 14.7706 8.96321 14.8914 9.07067 14.9915L10.1207 16.0415H6.66442C6.02275 14.764 5.63775 13.3975 5.41025 12.1521C5.25071 11.2744 5.15324 10.3865 5.11859 9.49505V9.49213C5.78942 9.51692 6.72567 9.5913 7.77713 9.7838C9.9063 10.1732 12.384 11.0234 14.1675 12.8098ZM4.47255 24.0623C5.68811 26.4746 7.54978 28.5019 9.85 29.9181C12.1502 31.3344 14.7986 32.0839 17.4998 32.0832C20.2011 32.0839 22.8495 31.3344 25.1497 29.9181C27.4499 28.5019 29.3116 26.4746 30.5271 24.0623H4.47255Z" fill="white"/>
</svg>
