<svg width="35" height="35" viewBox="0 0 35 35" fill="none" xmlns="http://www.w3.org/2000/svg">
<g clip-path="url(#clip0_740_491)">
<path d="M26.1561 9.36519L10.8583 0L8.91944 2.79862L8.47877 3.43457L19.3317 10.3673C20.1442 10.8807 21.1662 10.9506 22.0658 10.5543C22.6001 10.3187 23.2042 10.3798 23.682 10.7177C24.3731 11.2067 24.5771 12.1614 24.1462 12.8912C24.0468 13.0603 23.9179 13.2103 23.7656 13.334C23.253 13.7498 22.8998 14.3088 22.7444 14.9506C22.6982 15.1412 22.6182 15.322 22.5081 15.4843C22.0342 16.1865 21.0842 16.4126 20.3459 15.9983C19.9073 15.7527 19.6086 15.3279 19.5261 14.833C19.3187 13.5896 18.6055 12.5011 17.5706 11.8471L7.22916 5.23792L6.78848 5.87387L4.66406 8.94019C5.03323 9.34283 5.94918 10.2759 7.5003 11.4653C9.42144 12.9383 12.7373 15.1166 17.6256 17.1296C17.6779 17.1511 17.7248 17.1839 17.7631 17.2255C17.8013 17.2672 17.8299 17.3167 17.8469 17.3707C17.864 17.4246 17.869 17.4817 17.8615 17.5378C17.854 17.594 17.8342 17.6478 17.8036 17.6954C17.7981 17.7042 17.2232 18.6091 16.7333 19.8856C16.289 21.0427 15.8244 22.7533 16.1329 24.3306C16.406 25.7267 16.2484 27.7515 15.6644 30.3498C15.3716 31.6529 15.0389 32.7818 14.8544 33.3756L18.6373 33.8869L19.4039 33.9906L20.9823 24.7758C21.1733 23.6278 20.8615 22.4744 20.1276 21.6111C19.8179 21.2467 19.6992 20.7694 19.8026 20.301C19.9706 19.5397 20.708 19.0252 21.4815 19.1301C21.6888 19.1575 21.8881 19.2279 22.0667 19.3367C22.5531 19.6339 23.1358 19.7307 23.6921 19.6067C23.896 19.5619 24.1045 19.5596 24.3126 19.6006C25.0782 19.7519 25.6096 20.4772 25.5221 21.2522C25.4784 21.6404 25.2903 21.9922 24.9932 22.2424C23.8239 23.2266 23.0368 24.6284 22.7778 26.1872L21.3906 34.2592L22.1571 34.3629L26.8709 34.9999L30.1667 18.5457C30.8845 14.9624 29.2729 11.2728 26.1561 9.36519ZM27.4269 17.138C27.3367 17.2688 27.1892 17.3354 27.0313 17.3167L25.3474 17.116C25.1872 17.0968 25.0585 16.9949 25.0032 16.8434C24.9857 16.7962 24.9767 16.7463 24.9765 16.696C24.9765 16.5927 25.0155 16.4932 25.0898 16.4129C25.4264 16.0511 25.7631 15.6895 26.0999 15.3279C26.1387 15.2856 26.1859 15.2519 26.2385 15.2288C26.291 15.2058 26.3478 15.194 26.4052 15.1941C26.4243 15.1941 26.4437 15.1952 26.4629 15.198C26.5295 15.2066 26.5931 15.2312 26.6481 15.2697C26.7032 15.3083 26.7481 15.3596 26.7789 15.4193L27.4525 16.7049C27.5265 16.8455 27.5167 17.0073 27.4269 17.138Z" fill="white"/>
</g>
<defs>
<clipPath id="clip0_740_491">
<rect width="35" height="35" fill="white"/>
</clipPath>
</defs>
</svg>
