<svg width="35" height="35" viewBox="0 0 35 35" fill="none" xmlns="http://www.w3.org/2000/svg">
<g clip-path="url(#clip0_740_487)">
<path d="M17.9033 24.9293C16.8849 26.1285 15.4684 26.9036 13.9111 27.1396V35H20.1318V23.0515L19.5634 22.9747L17.9033 24.9293ZM7.81963 24.8501L6.26541 22.9581L3.55332 23.3146C1.82246 23.5067 0.512695 24.9703 0.512695 26.7114V34.3164C0.512695 34.694 0.81874 35 1.19629 35H11.8604V27.1367C10.273 26.8916 8.83606 26.0874 7.81963 24.8501ZM7.0752 30.8301H6.7334V31.1719C6.7334 31.7382 6.2743 32.1973 5.70801 32.1973C5.14172 32.1973 4.68262 31.7382 4.68262 31.1719V30.8301H4.34082C3.77453 30.8301 3.31543 30.371 3.31543 29.8047C3.31543 29.2384 3.77453 28.7793 4.34082 28.7793H4.68262V28.4375C4.68262 27.8712 5.14172 27.4121 5.70801 27.4121C6.2743 27.4121 6.7334 27.8712 6.7334 28.4375V28.7793H7.0752C7.64148 28.7793 8.10059 29.2384 8.10059 29.8047C8.10059 30.371 7.64148 30.8301 7.0752 30.8301ZM3.20605 12.1509H3.24878V7.99716L3.18746 7.5371C1.92186 7.54715 0.898926 8.57582 0.898926 9.84375C0.898926 11.118 1.93184 12.1509 3.20605 12.1509ZM22.3894 7.99716V12.1509H22.4321C23.7063 12.1509 24.7393 11.118 24.7393 9.84375C24.7393 8.57582 23.7163 7.54715 22.4507 7.5371L22.3894 7.99716ZM16.9873 22.627V21.5094C16.1137 22.0147 15.1195 22.2852 14.0849 22.2852H11.5533C10.571 22.2852 9.62507 22.0413 8.78418 21.5841V22.627C8.78418 22.627 10.1116 25.1562 12.8857 25.1562C15.6509 25.1562 16.9873 22.627 16.9873 22.627ZM19.2676 7.89489L6.44212 7.88437C5.8355 8.56816 5.31262 9.54885 5.29956 10.9044V14.0372C5.29956 15.0373 5.70814 16.0135 6.42059 16.7154C7.30769 17.5896 8.01978 18.2708 8.91393 19.1521C9.62192 19.8501 10.5593 20.2344 11.5533 20.2344H14.0849C15.079 20.2344 16.0163 19.8501 16.7243 19.1522C17.6105 18.2785 18.3258 17.5943 19.2176 16.7155C19.93 16.0135 20.3386 15.0374 20.3386 14.0373L20.3366 10.9557C20.3366 9.58077 19.8439 8.58737 19.2676 7.89489ZM15.549 15.5518C14.3675 17.5978 11.4051 17.5996 10.2225 15.5518C9.93925 15.0614 10.1072 14.4343 10.5976 14.1511C11.088 13.8679 11.7152 14.0359 11.9984 14.5262C12.3923 15.2084 13.3787 15.209 13.773 14.5262C14.0563 14.0359 14.6834 13.8679 15.1738 14.1511C15.6643 14.4343 15.8322 15.0614 15.549 15.5518ZM5.39971 5.83276L19.9925 5.84473C21.9038 5.84473 23.4532 4.29529 23.4532 2.38403V0.683594C23.4532 0.306045 23.1472 0 22.7696 0H7.61886C4.54973 0 3.1068 3.79271 5.39971 5.83276ZM28.3486 23.6523C27.5017 23.6523 27.0189 24.6175 27.53 25.2951L28.3532 26.3867L29.1707 25.2908C29.6741 24.6157 29.1964 23.6523 28.3486 23.6523Z" fill="white"/>
<path d="M33.1201 18.5254H23.5498C22.7947 18.5254 22.1826 19.1375 22.1826 19.8926V35H33.1201C33.8752 35 34.4873 34.3879 34.4873 33.6328V19.8926C34.4873 19.1375 33.8752 18.5254 33.1201 18.5254ZM31.0373 31.6488C30.5853 31.9897 29.9422 31.8996 29.6012 31.4475L28.3623 29.8047L27.1403 31.4431C26.8023 31.8962 26.16 31.9912 25.7053 31.652C25.2513 31.3134 25.1578 30.671 25.4964 30.217L27.076 28.0991L25.8925 26.5299C24.3647 24.5041 25.8114 21.6016 28.3486 21.6016C30.8785 21.6016 32.3267 24.4893 30.8145 26.5168L29.6395 28.0922L31.2386 30.2127C31.5796 30.6648 31.4895 31.3078 31.0373 31.6488Z" fill="white"/>
</g>
<defs>
<clipPath id="clip0_740_487">
<rect width="35" height="35" fill="white"/>
</clipPath>
</defs>
</svg>
