<svg width="35" height="35" viewBox="0 0 35 35" fill="none" xmlns="http://www.w3.org/2000/svg">
<g clip-path="url(#clip0_740_454)">
<path d="M15.6644 32.788C14.775 32.788 13.9451 32.5392 13.2485 32.1105V32.7463C13.2485 33.9891 14.3327 35.0001 15.6644 35.0001H19.3353C20.6669 35.0001 21.7511 33.9891 21.7511 32.7463V32.1105C21.0545 32.5392 20.2246 32.788 19.3353 32.788H15.6644ZM15.6671 28.8819C14.7764 28.8819 13.9465 28.6201 13.2485 28.1696V28.5347C13.2485 29.7494 14.3327 30.7372 15.6644 30.7372H19.3353C20.6669 30.7372 21.7511 29.7494 21.7511 28.5347V28.1696C21.0305 28.6355 20.1906 28.8829 19.3325 28.8819H15.6671ZM19.3325 26.8312C19.5212 26.8312 19.7058 26.8093 19.8821 26.7683C19.459 25.9896 19.0071 25.3573 18.5532 24.9171C17.7532 24.1407 17.2471 24.1367 16.4402 24.9226C15.9897 25.3614 15.5399 25.9924 15.1175 26.7683C15.2938 26.8093 15.4784 26.8312 15.6671 26.8312H19.3325ZM15.5447 12.2323C15.1106 12.2323 14.6909 12.1722 14.2938 12.0601C14.873 12.7251 15.9993 13.7232 16.8997 13.7232H18.1032C18.9943 13.7232 20.1156 12.7333 20.6977 12.0621C20.2934 12.1754 19.8754 12.2326 19.4556 12.2323H15.5447Z" fill="white"/>
<path d="M34.8188 14.3102C34.5973 12.7365 34.2733 10.9127 33.5521 9.31172C32.2772 6.48369 30.3618 5.88965 28.9796 5.88965C27.0026 5.88965 25.3162 6.87471 24.7823 8.34033C23.9387 10.6604 23.2605 13.0785 20.4285 15.0108C18.9023 16.0877 16.1842 16.1427 14.5667 15.0081C11.7455 13.0824 11.0639 10.6707 10.2176 8.34033C9.68376 6.87471 7.99734 5.88965 6.02038 5.88965C4.63816 5.88965 2.72273 6.48369 1.44783 9.31172C0.726634 10.9127 0.402611 12.7365 0.181126 14.3095C-0.323366 17.8847 0.223509 21.3416 1.8532 24.8771C3.18279 27.7585 4.77009 30.4771 8.10945 30.4771C10.0673 30.4771 11.7489 29.5023 12.2937 28.0518C12.8215 26.647 13.7211 24.7083 15.0096 23.4532C16.6125 21.8924 18.3768 21.8867 19.9821 23.4457C21.2761 24.7015 22.1778 26.6436 22.7062 28.0518C23.251 29.5023 24.9327 30.4771 26.8905 30.4771C30.1797 30.4771 31.7635 27.8763 33.1468 24.8771C34.7764 21.3416 35.3233 17.8847 34.8188 14.3102ZM4.69421 10.0972C5.33132 9.46279 6.2863 9.25908 7.12781 9.57764C7.65759 9.77861 7.92419 10.3706 7.72322 10.9004C7.52224 11.4295 6.93025 11.6961 6.40115 11.4958C6.20844 11.4226 6.0145 11.6045 6.08806 11.8C6.34407 12.4716 5.84627 13.1911 5.13035 13.1911C4.71745 13.1911 4.32849 12.9396 4.17195 12.5308C3.85066 11.6893 4.05574 10.7336 4.69421 10.0972ZM4.41599 18.5765C3.77683 17.94 3.57243 16.9851 3.89372 16.1429C4.09538 15.6138 4.68806 15.3485 5.21716 15.5509C5.74626 15.7525 6.0115 16.3452 5.80915 16.8743C5.73601 17.0667 5.9283 17.2522 6.12224 17.1785C6.65202 16.9775 7.24402 17.2441 7.44431 17.7739C7.64529 18.303 7.37868 18.8957 6.8489 19.096C5.99933 19.4174 5.04825 19.2067 4.41599 18.5765ZM9.74187 24.1724C9.54158 24.7021 8.94958 24.9688 8.4198 24.7678C8.22586 24.694 8.03364 24.8796 8.10671 25.072C8.36415 25.7452 7.8641 26.4631 7.149 26.4631C6.73611 26.4631 6.34714 26.2122 6.19128 25.8034C5.86999 24.9612 6.07439 24.0063 6.71355 23.3698C7.34997 22.7354 8.30495 22.5311 9.14646 22.8503C9.67624 23.0513 9.94284 23.6433 9.74187 24.1724ZM12.183 20.1118C11.5438 20.748 10.5887 20.9488 9.74939 20.6313C9.2196 20.4304 8.953 19.8384 9.15398 19.3086C9.35427 18.7795 9.94626 18.5129 10.476 18.7132C10.6695 18.7867 10.8623 18.6036 10.7891 18.409C10.5868 17.8799 10.852 17.2872 11.3811 17.0855C11.9102 16.8839 12.5029 17.1491 12.7046 17.6775C13.0265 18.5197 12.8215 19.4754 12.183 20.1118ZM24.8684 19.66C24.3475 19.8944 23.7435 19.6589 23.5129 19.1459C23.4281 18.9587 23.1564 18.9577 23.0713 19.1459C22.8388 19.6627 22.2311 19.8924 21.715 19.66C21.1989 19.4275 20.9692 18.8205 21.2016 18.3037C21.5708 17.4841 22.3918 16.9543 23.2921 16.9543C24.1924 16.9543 25.0134 17.4841 25.3825 18.3037C25.6149 18.8205 25.3852 19.4275 24.8684 19.66ZM26.7278 12.4364C26.9288 11.9073 27.5201 11.6407 28.0499 11.841C28.1182 11.867 28.2269 11.8684 28.309 11.787C28.3889 11.7077 28.3889 11.6059 28.363 11.5375C28.1613 11.0084 28.4259 10.4157 28.955 10.2134C29.4841 10.0117 30.0767 10.277 30.2791 10.8061C30.6004 11.6476 30.3953 12.6032 29.7568 13.2396C29.117 13.8765 28.1619 14.0764 27.3232 13.7592C26.7934 13.5582 26.5268 12.9662 26.7278 12.4364ZM29.2352 24.4109C29.0343 24.9407 28.4429 25.2073 27.9132 25.0063C27.7183 24.9342 27.5268 25.1178 27.6001 25.3105C27.857 25.9822 27.3588 26.7023 26.6424 26.7023C26.2295 26.7023 25.8405 26.4508 25.684 26.042C25.3627 25.2005 25.5677 24.2448 26.2062 23.6084C26.8433 22.974 27.7983 22.7703 28.6398 23.0889C29.1696 23.2898 29.4362 23.8818 29.2352 24.4109ZM30.5908 20.0257C30.154 20.4611 29.5668 20.6942 28.9693 20.6942C28.6966 20.6942 28.4211 20.6457 28.1572 20.5452C27.6281 20.3449 27.3615 19.7529 27.5618 19.2231C27.7628 18.6934 28.3548 18.4268 28.8845 18.6277C29.078 18.702 29.2717 18.5151 29.1969 18.3235C28.9953 17.7944 29.2605 17.2018 29.7896 17.0001C30.3187 16.7978 30.9114 17.063 31.1131 17.5921C31.4343 18.4343 31.2293 19.3893 30.5908 20.0257Z" fill="white"/>
<path d="M21.9138 7.77041C21.6199 7.94541 21.2993 8.08965 20.9568 8.19766C20.3449 8.39166 19.7027 8.45715 19.094 8.40889H19.0885C18.0548 8.32569 16.9378 8.3261 15.9133 8.40889H15.9092C15.2949 8.45811 14.6485 8.38968 14.0429 8.19834C13.6998 8.08965 13.3792 7.94609 13.0859 7.77178C13.0859 9.21252 14.2566 10.1814 15.5448 10.1814H19.4556C20.742 10.1814 21.9138 9.21607 21.9138 7.77041ZM12.3234 2.60135C13.0843 3.71212 13.1478 3.79654 13.2021 4.62868C13.2487 5.34386 13.8215 5.97741 14.6607 6.24251C15.0035 6.35127 15.3801 6.39311 15.7506 6.36433C16.8931 6.2732 18.0986 6.27273 19.251 6.36433C19.6393 6.39399 20.0104 6.34635 20.3391 6.24251C21.1784 5.97748 21.7511 5.34386 21.7984 4.6282C21.8511 3.80003 21.9136 3.71492 22.6764 2.60142C22.7969 2.42525 22.9331 2.22708 23.0863 2.0002C23.6865 1.11316 22.9128 0 21.6397 0H19.8795C19.2631 0 18.7018 0.276582 18.4142 0.724063L17.905 1.52024C17.72 1.8092 17.2802 1.81002 17.0954 1.52079L16.5843 0.72249C16.2979 0.277061 15.7372 0 15.1202 0H13.36C12.0803 0 11.3164 1.11774 11.9135 2.00013C12.0667 2.22701 12.2023 2.42519 12.3234 2.60135Z" fill="white"/>
</g>
<defs>
<clipPath id="clip0_740_454">
<rect width="35" height="35" fill="white"/>
</clipPath>
</defs>
</svg>
