<svg width="13" height="31" viewBox="0 0 13 31" fill="none" xmlns="http://www.w3.org/2000/svg">
<path d="M3.58317 30.0832V22.7915H0.666504V12.5832C0.666504 11.3679 1.09185 10.3349 1.94255 9.48421C2.79324 8.63352 3.82623 8.20817 5.0415 8.20817C6.25678 8.20817 7.28977 8.63352 8.14046 9.48421C8.99116 10.3349 9.4165 11.3679 9.4165 12.5832C10.2915 12.9478 10.9964 13.5311 11.5311 14.3332C12.0658 15.1353 12.3332 16.0103 12.3332 16.9582V22.7915H7.95817V30.0832H3.58317ZM5.0415 6.74984C4.23942 6.74984 3.55303 6.46449 2.98234 5.8938C2.41164 5.3231 2.12581 4.63623 2.12484 3.83317C2.12484 3.03109 2.41067 2.3447 2.98234 1.774C3.554 1.20331 4.24039 0.917476 5.0415 0.916504C5.84359 0.916504 6.53046 1.20234 7.10213 1.774C7.6738 2.34567 7.95914 3.03206 7.95817 3.83317C7.95817 4.63525 7.67282 5.32213 7.10213 5.8938C6.53143 6.46546 5.84456 6.75081 5.0415 6.74984Z" fill="white"/>
</svg>
