<svg width="35" height="35" viewBox="0 0 35 35" fill="none" xmlns="http://www.w3.org/2000/svg">
<path d="M4.375 2.1875C3.79484 2.1875 3.23844 2.41797 2.8282 2.8282C2.41797 3.23844 2.1875 3.79484 2.1875 4.375V6.5625C2.18751 6.94648 2.28859 7.32369 2.48058 7.65622C2.67258 7.98875 2.94872 8.26489 3.28125 8.45687V27.3438C3.28125 28.7942 3.85742 30.1852 4.88301 31.2107C5.9086 32.2363 7.2996 32.8125 8.75 32.8125H21.875C23.3254 32.8125 24.7164 32.2363 25.742 31.2107C26.7676 30.1852 27.3438 28.7942 27.3438 27.3438V25.1311C26.635 25.4373 25.9022 25.6802 25.1562 25.8606V27.3438C25.1562 28.214 24.8105 29.0486 24.1952 29.6639C23.5798 30.2793 22.7452 30.625 21.875 30.625H8.75C7.87976 30.625 7.04516 30.2793 6.42981 29.6639C5.81445 29.0486 5.46875 28.214 5.46875 27.3438V8.75H25.1562V12.4206C25.9022 12.6011 26.635 12.8439 27.3438 13.1502V8.45797C27.6764 8.26589 27.9527 7.98958 28.1447 7.65684C28.3367 7.3241 28.4377 6.94666 28.4375 6.5625V4.375C28.4375 3.79484 28.207 3.23844 27.7968 2.8282C27.3866 2.41797 26.8302 2.1875 26.25 2.1875H4.375Z" fill="white"/>
<path fill-rule="evenodd" clip-rule="evenodd" d="M9.84375 19.1407C9.84371 18.6193 10.0299 18.1151 10.3687 17.7188C9.95291 17.5417 9.49963 17.4703 9.04947 17.5112C8.59931 17.5521 8.1663 17.704 7.78921 17.9532C7.41211 18.2024 7.10268 18.5413 6.8886 18.9394C6.67453 19.3375 6.56248 19.7825 6.5625 20.2345V21.3282C6.56219 21.9925 6.80372 22.6342 7.24197 23.1334C7.68021 23.6326 8.28521 23.9553 8.94394 24.041C9.60268 24.1267 10.2701 23.9697 10.8215 23.5993C11.373 23.2289 11.7707 22.6705 11.9405 22.0282L10.5514 20.7518C10.3283 20.5469 10.1503 20.2979 10.0284 20.0206C9.90662 19.7432 9.84373 19.4436 9.84375 19.1407ZM9.29688 19.6876C9.15183 19.6876 9.01273 19.7452 8.91018 19.8478C8.80762 19.9503 8.75 20.0894 8.75 20.2345V21.3282C8.75 21.4733 8.80762 21.6124 8.91018 21.7149C9.01273 21.8175 9.15183 21.8751 9.29688 21.8751C9.44192 21.8751 9.58102 21.8175 9.68357 21.7149C9.78613 21.6124 9.84375 21.4733 9.84375 21.3282V20.2345C9.84375 20.0894 9.78613 19.9503 9.68357 19.8478C9.58102 19.7452 9.44192 19.6876 9.29688 19.6876Z" fill="white"/>
<path d="M19.6623 12.2061C19.5685 11.5192 19.2173 10.8936 18.6797 10.4559C18.1422 10.0181 17.4584 9.80091 16.7668 9.84816C16.0751 9.89541 15.4272 10.2036 14.9542 10.7104C14.4812 11.2172 14.2183 11.8847 14.2188 12.578V13.6718C14.2188 13.8883 14.2439 14.0983 14.2909 14.2996C14.9595 13.8526 15.6676 13.4679 16.4063 13.15V12.578C16.4063 12.433 16.4639 12.2939 16.5664 12.1913C16.669 12.0887 16.8081 12.0311 16.9531 12.0311C17.0982 12.0311 17.2373 12.0887 17.3398 12.1913C17.4424 12.2939 17.5 12.433 17.5 12.578V12.7333C18.2054 12.4996 18.9285 12.3233 19.6623 12.2061Z" fill="white"/>
<path fill-rule="evenodd" clip-rule="evenodd" d="M9.29688 9.84375C8.57167 9.84375 7.87617 10.1318 7.36338 10.6446C6.85059 11.1574 6.5625 11.8529 6.5625 12.5781V13.6719C6.5625 14.3971 6.85059 15.0926 7.36338 15.6054C7.87617 16.1182 8.57167 16.4062 9.29688 16.4062C10.0221 16.4062 10.7176 16.1182 11.2304 15.6054C11.7432 15.0926 12.0312 14.3971 12.0312 13.6719V12.5781C12.0312 11.8529 11.7432 11.1574 11.2304 10.6446C10.7176 10.1318 10.0221 9.84375 9.29688 9.84375ZM8.75 12.5781C8.75 12.4331 8.80762 12.294 8.91018 12.1914C9.01273 12.0889 9.15183 12.0312 9.29688 12.0312C9.44192 12.0312 9.58102 12.0889 9.68357 12.1914C9.78613 12.294 9.84375 12.4331 9.84375 12.5781V13.6719C9.84375 13.8169 9.78613 13.956 9.68357 14.0586C9.58102 14.1611 9.44192 14.2188 9.29688 14.2188C9.15183 14.2188 9.01273 14.1611 8.91018 14.0586C8.80762 13.956 8.75 13.8169 8.75 13.6719V12.5781ZM30.2706 16.3264C25.6244 12.0586 18.1256 12.0586 13.4794 16.3264L11.2919 18.3356C11.1803 18.4381 11.0913 18.5626 11.0304 18.7012C10.9694 18.8399 10.938 18.9897 10.938 19.1412C10.938 19.2926 10.9694 19.4424 11.0304 19.5811C11.0913 19.7198 11.1803 19.8443 11.2919 19.9467L13.4794 21.9548C18.1256 26.2227 25.6244 26.2227 30.2706 21.9548L32.4581 19.9456C32.5697 19.8432 32.6587 19.7187 32.7196 19.58C32.7806 19.4413 32.812 19.2915 32.812 19.1401C32.812 18.9886 32.7806 18.8388 32.7196 18.7002C32.6587 18.5615 32.5697 18.437 32.4581 18.3345L30.2706 16.3264ZM21.875 22.9688C23.6873 22.9688 25.1562 21.2548 25.1562 19.1406C25.1562 17.0264 23.6873 15.3125 21.875 15.3125C20.0627 15.3125 18.5938 17.0264 18.5938 19.1406C18.5938 21.2548 20.0627 22.9688 21.875 22.9688Z" fill="white"/>
</svg>
