<svg width="35" height="35" viewBox="0 0 35 35" fill="none" xmlns="http://www.w3.org/2000/svg">
<path d="M29.0794 13.6744C28.2715 11.777 27.0102 10.1069 25.4061 8.81078C23.8021 7.51465 21.9045 6.63208 19.8797 6.24056L21.7088 3.31416L19.8538 2.15479L17.4403 6.01627C14.982 6.02767 12.5808 6.75906 10.5335 8.12005C8.48626 9.48104 6.88257 11.412 5.92061 13.6744C4.63207 13.6989 3.40458 14.2279 2.50199 15.1478C1.59939 16.0678 1.09375 17.3051 1.09375 18.5938C1.09375 19.8826 1.59939 21.1199 2.50199 22.0399C3.40458 22.9598 4.63207 23.4888 5.92061 23.5133C6.88667 25.785 8.49957 27.7223 10.5585 29.0841C12.6174 30.4459 15.0315 31.172 17.5 31.172C19.9685 31.172 22.3826 30.4459 24.4415 29.0841C26.5004 27.7223 28.1133 25.785 29.0794 23.5133C30.3679 23.4888 31.5954 22.9598 32.498 22.0399C33.4006 21.1199 33.9063 19.8826 33.9063 18.5938C33.9063 17.3051 33.4006 16.0678 32.498 15.1478C31.5954 14.2279 30.3679 13.6989 29.0794 13.6744ZM30.9355 20.5086C30.4352 21.0203 29.7533 21.3141 29.0378 21.3262L27.6211 21.3532L27.0665 22.6571C26.2685 24.534 24.9361 26.1347 23.235 27.2599C21.534 28.3851 19.5395 28.985 17.5 28.985C15.4605 28.985 13.4661 28.3851 11.7651 27.2599C10.064 26.1347 8.73156 24.534 7.93359 22.6571L7.37892 21.3532L5.96217 21.3262C5.24635 21.3128 4.56437 21.0191 4.06288 20.5081C3.56139 19.9971 3.28044 19.3098 3.28044 18.5938C3.28044 17.8779 3.56139 17.1905 4.06288 16.6796C4.56437 16.1686 5.24635 15.8749 5.96217 15.8615L7.37892 15.8345L7.93359 14.5306C8.73158 12.6537 10.0641 11.0531 11.7651 9.92788C13.4661 8.80271 15.4605 8.20278 17.5 8.20278C19.5395 8.20278 21.534 8.80271 23.235 9.92788C24.936 11.0531 26.2685 12.6537 27.0665 14.5306L27.6211 15.8345L29.0378 15.8615C29.5717 15.8715 30.091 16.0378 30.5314 16.3398C30.9718 16.6418 31.3141 17.0662 31.516 17.5605C31.7179 18.0549 31.7705 18.5976 31.6673 19.1215C31.5641 19.6454 31.3097 20.1277 30.9355 20.5086Z" fill="white"/>
<path d="M11.4844 15.8594H14.2188V18.5938H11.4844V15.8594ZM20.7812 15.8594H23.5156V18.5938H20.7812V15.8594ZM17.5 26.25C18.2182 26.25 18.9293 26.1085 19.5928 25.8337C20.2563 25.5589 20.8592 25.1561 21.367 24.6482C21.8748 24.1404 22.2776 23.5375 22.5525 22.8741C22.8273 22.2106 22.9688 21.4994 22.9688 20.7812H12.0312C12.0312 21.4994 12.1727 22.2106 12.4475 22.8741C12.7224 23.5375 13.1252 24.1404 13.633 24.6482C14.6586 25.6738 16.0496 26.25 17.5 26.25Z" fill="white"/>
</svg>
