<svg width="35" height="35" viewBox="0 0 35 35" fill="none" xmlns="http://www.w3.org/2000/svg">
<path d="M28.7383 1.12109C28.6221 1.17578 28.5059 1.26465 28.4785 1.33301C28.458 1.39453 28.4375 1.79785 28.4375 2.22852C28.4375 3.14453 28.5059 3.28125 28.9844 3.28125C29.4629 3.28125 29.5312 3.14453 29.5312 2.1875C29.5312 1.45605 29.5176 1.35352 29.3945 1.23047C29.3193 1.15527 29.2305 1.09375 29.1963 1.09375C29.1621 1.09375 29.0938 1.08008 29.0391 1.05957C28.9912 1.0459 28.8545 1.07324 28.7383 1.12109Z" fill="white"/>
<path d="M7.78598 1.23725C7.58774 1.4355 6.88364 2.52241 6.52817 3.17182C6.12485 3.92378 5.99497 4.40229 6.02915 5.05171C6.07016 5.89253 6.49399 6.55561 7.23227 6.91792C7.62192 7.10249 8.40806 7.16401 8.85923 7.04096C9.46763 6.87007 10.0692 6.29585 10.2948 5.66694C10.4452 5.24311 10.4315 4.498 10.2538 3.99897C10.035 3.36323 8.99595 1.61323 8.6063 1.22358C8.42856 1.04585 7.97739 1.04585 7.78598 1.23725Z" fill="white"/>
<path d="M10.9375 1.18945C10.4795 1.31933 10.1172 1.49023 10.1172 1.56543C10.1172 1.60644 10.2197 1.79785 10.3428 1.99609C11.1152 3.21973 11.4229 4.02637 11.4229 4.87402C11.4229 5.58496 11.2383 6.19336 10.8691 6.72656L10.5957 7.11621L13.6855 7.0957C17.0898 7.0752 16.9189 7.0957 17.8691 6.61719C18.9287 6.09766 19.8379 4.99023 20.125 3.8623C20.248 3.35644 20.3369 2.10547 20.2754 1.6748C20.1797 1.0459 20.5557 1.09375 15.6064 1.10058C12.3115 1.10742 11.1699 1.12793 10.9375 1.18945Z" fill="white"/>
<path d="M24.336 2.9942C23.9806 3.3565 24.0763 3.6231 24.8009 4.32037C25.3683 4.86724 25.5802 4.9151 25.9151 4.58697C26.2569 4.23834 26.2022 4.03326 25.587 3.40435C25.1632 2.98053 24.9991 2.85748 24.8009 2.8233C24.5821 2.78912 24.5206 2.81646 24.336 2.9942Z" fill="white"/>
<path d="M32.4227 3.37017C31.7596 4.03326 31.7049 4.2315 32.0535 4.58697C32.3885 4.9151 32.6004 4.86724 33.1678 4.32037C33.8924 3.62994 33.9881 3.34967 33.6394 3.00103C33.284 2.6524 33.0857 2.70709 32.4227 3.37017Z" fill="white"/>
<path d="M28.1165 4.47095C27.1321 4.79223 26.4006 5.67407 26.2502 6.73364C26.2161 7.00024 26.1819 8.7229 26.1819 10.6165V14.0276L25.7786 14.4651C25.3206 14.9709 24.8762 15.7639 24.719 16.3791C24.5754 16.9329 24.5754 18.0676 24.719 18.6145C25.1155 20.1526 26.387 21.4172 27.9045 21.7727C28.4583 21.9026 29.511 21.9026 30.0715 21.7727C31.2063 21.5061 32.3206 20.6311 32.8606 19.5852C33.2366 18.8538 33.3596 18.3479 33.3596 17.5002C33.3596 17.0833 33.3186 16.6321 33.2502 16.3791C33.0862 15.7502 32.6418 14.9436 32.1838 14.4719L31.7874 14.0481V10.6301C31.7874 8.7229 31.7532 7.00024 31.719 6.73364C31.5823 5.81079 31.0081 5.01098 30.1809 4.6145C29.8254 4.4436 29.675 4.41626 29.0872 4.39575C28.6428 4.38208 28.301 4.40942 28.1165 4.47095ZM29.3606 6.77466C29.4973 6.90454 29.4973 7.01392 29.5178 11.1633L29.5383 15.4153L29.8665 15.5725C30.2698 15.7571 30.7004 16.1604 30.9124 16.5569C31.0422 16.803 31.0696 16.9534 31.0696 17.5002C31.0696 18.2454 30.9534 18.5393 30.4885 19.0042C30.0237 19.469 29.7297 19.5852 28.9846 19.5852C28.2395 19.5852 27.9456 19.469 27.4807 19.0042C27.0159 18.5393 26.8997 18.2454 26.8997 17.5002C26.8997 16.9534 26.927 16.803 27.0569 16.55C27.2756 16.1467 27.761 15.6887 28.1301 15.552L28.4309 15.4358L28.4514 11.177C28.4719 6.61743 28.4583 6.76782 28.8137 6.6311C28.9915 6.55591 29.1897 6.61059 29.3606 6.77466Z" fill="white"/>
<path d="M18.0811 7.63599C17.8213 7.75903 17.3564 7.92993 17.0557 8.01196C16.5225 8.15552 16.3926 8.16235 12.0859 8.1897L7.65625 8.21021V9.97388C7.65625 12.0178 7.71777 12.4006 8.2373 13.4329C8.92773 14.8274 10.2539 15.887 11.7852 16.2698C12.5303 16.4543 13.7197 16.4543 14.4648 16.2698C16.0029 15.887 17.3086 14.8411 18.0127 13.4329C18.5527 12.3596 18.6006 12.0588 18.5801 9.56372L18.5596 7.4104L18.0811 7.63599Z" fill="white"/>
<path d="M6.28246 7.86816C6.14574 7.93652 5.94749 8.09375 5.84496 8.2168C5.52367 8.59961 5.44847 8.85254 5.48265 9.50879C5.51683 10.2471 5.7766 10.835 6.26878 11.2861L6.59691 11.5869L6.61742 10.2539C6.62425 9.52246 6.61058 8.6543 6.58324 8.32617L6.52855 7.73828L6.28246 7.86816Z" fill="white"/>
<path d="M19.6395 9.63176C19.6532 11.7714 19.6258 11.6894 20.1317 11.1357C20.5419 10.6845 20.7333 10.1786 20.7674 9.50188C20.8016 8.85247 20.7264 8.59954 20.4051 8.21672C20.2479 8.03215 19.7831 7.72454 19.66 7.72454C19.6463 7.72454 19.6327 8.58586 19.6395 9.63176Z" fill="white"/>
<path d="M9.84375 17.4387C9.84375 18.4368 9.93945 18.6829 10.5342 19.2844C10.9443 19.6946 11.4434 19.9749 12.0381 20.1321C12.5166 20.262 13.7334 20.262 14.2119 20.1321C15.0938 19.8997 15.873 19.3118 16.2285 18.6077C16.3926 18.2864 16.4062 18.1838 16.4062 17.4319C16.4062 16.9807 16.3926 16.6116 16.3789 16.6116C16.3652 16.6116 16.126 16.7209 15.8457 16.8508C14.123 17.6438 12.127 17.6438 10.4043 16.8508C10.124 16.7209 9.88477 16.6116 9.87109 16.6116C9.85742 16.6116 9.84375 16.9875 9.84375 17.4387Z" fill="white"/>
<path d="M6.95215 17.5684C5.57812 17.8008 4.18359 18.5322 3.1582 19.5645C2.2832 20.4326 1.71582 21.3896 1.31934 22.668L1.12793 23.2764V27.6172V31.958L1.32617 32.3682C1.58594 32.8945 2.10547 33.4141 2.63184 33.6738L3.04199 33.8721L9.72754 33.8926L16.4062 33.9062V31.1719V28.4375H11.2451C6.93164 28.4375 6.04297 28.4238 5.84473 28.3418C5.50977 28.1982 5.44824 27.9385 5.48242 26.6055C5.50293 25.5732 5.50977 25.4912 5.65332 25.3545C5.83789 25.1699 6.16602 25.1562 6.35742 25.3271C6.48047 25.4365 6.49414 25.5391 6.49414 26.4004V27.3438H12.708C16.1191 27.3438 19.1064 27.3643 19.3389 27.3848L19.7559 27.4326V26.4414C19.7559 25.5322 19.7695 25.4434 19.8926 25.3271C20.0703 25.1699 20.3984 25.1699 20.5762 25.3271C20.6992 25.4434 20.7129 25.5391 20.7197 26.585V27.7197L21.2051 28.0273C21.9707 28.5127 22.5654 29.333 22.7979 30.2217C22.9482 30.7754 22.9277 31.6846 22.7568 32.2383C22.5928 32.7783 22.3945 33.1475 22.0391 33.5713L21.7861 33.8721L22.292 33.8926C22.9688 33.9268 23.4268 33.8105 23.9053 33.5029C24.377 33.2021 24.6777 32.8604 24.9375 32.334L25.1221 31.958V27.6172V23.2764L24.9307 22.6748C24.2881 20.624 22.9619 19.0381 21.1572 18.1768C20.207 17.7256 19.5098 17.5615 18.4229 17.5205L17.4658 17.4795L17.4453 17.876C17.4043 18.6553 16.8984 19.5781 16.2012 20.166C15.709 20.5762 14.8135 21.0205 14.1914 21.1572C13.4053 21.335 12.3252 21.2734 11.5527 21.0137C10.0557 20.5146 8.94824 19.2705 8.83887 17.9785L8.79785 17.5L8.03906 17.5068C7.62207 17.5137 7.12988 17.541 6.95215 17.5684Z" fill="white"/>
<path d="M17.5 31.1719V33.9199L18.7168 33.8926C19.8652 33.8721 19.9473 33.8652 20.3232 33.6875C20.8291 33.4482 21.417 32.8604 21.6562 32.3545C21.8203 31.9922 21.8408 31.8828 21.8408 31.1719C21.8408 30.4199 21.8271 30.3584 21.6221 29.9346C21.3555 29.3877 20.8633 28.9092 20.3164 28.6563C19.9473 28.4785 19.8652 28.4717 18.7168 28.4512L17.5 28.4238V31.1719Z" fill="white"/>
</svg>
