<svg width="35" height="35" viewBox="0 0 35 35" fill="none" xmlns="http://www.w3.org/2000/svg">
<g clip-path="url(#clip0_740_284)">
<path d="M8.95496 1.75684C7.23914 2.03711 5.85828 2.57715 4.47742 3.50684C3.62292 4.08789 2.26257 5.45508 1.7157 6.28906C0.970581 7.41699 0.45105 8.64063 0.170776 9.91211C-0.00695828 10.7119 -0.0479739 12.667 0.0955808 13.5488C0.286987 14.7109 0.895386 16.3311 1.51746 17.3496L1.65417 17.5684L5.48914 17.5547L9.3241 17.5342L10.0214 16.3721C10.4794 15.5996 10.7938 15.1553 10.9374 15.0527C11.2108 14.8682 11.6825 14.8545 11.9764 15.0186C12.1132 15.1074 12.6259 15.8389 13.6512 17.4453C14.4579 18.7168 15.1415 19.7559 15.1688 19.7559C15.1962 19.7559 16.1737 17.7529 17.3358 15.2988C19.202 11.3545 19.4755 10.8213 19.6805 10.6846C19.9813 10.4863 20.4393 10.4727 20.7469 10.6641C20.9794 10.8076 20.9315 10.7188 23.4061 15.3125L24.6024 17.5342L28.9637 17.5547L33.3319 17.5684L33.6259 17.0557C34.5624 15.4287 34.9999 13.7881 34.9999 11.9287C34.9999 10.2744 34.7264 9.07129 34.0155 7.62207C33.4618 6.50098 32.8944 5.69434 32.0262 4.8125C30.3719 3.1377 28.3417 2.09863 26.0585 1.77051C25.1356 1.64063 23.2968 1.72266 22.4559 1.93457C20.7811 2.3584 19.243 3.13086 17.8622 4.24512C17.5409 4.49805 17.4862 4.51856 17.37 4.43652C17.3016 4.38184 16.9735 4.14258 16.6522 3.89649C15.203 2.80957 13.535 2.07813 11.8602 1.81153C11.2928 1.71582 9.40613 1.68164 8.95496 1.75684Z" fill="white"/>
<path d="M20.0361 14.1639C19.8516 14.5672 17.0693 20.4529 16.3789 21.8885C16.1396 22.3875 16.0098 22.5789 15.832 22.6883C15.5449 22.8729 15.0801 22.8797 14.793 22.702C14.6494 22.6131 14.1299 21.8611 13.0635 20.1727C12.2227 18.8533 11.5117 17.7869 11.4844 17.8074C11.4639 17.8211 11.2451 18.1629 10.999 18.5594C10.3291 19.6736 10.7256 19.5779 6.68555 19.619L3.28809 19.6531L10.1104 26.4344C14.5742 30.8709 17.001 33.2293 17.1172 33.2635C17.4795 33.3524 17.9512 33.2567 18.2314 33.0311C18.375 32.9149 21.458 29.8524 25.0879 26.2225L31.6846 19.619H27.9248C25.8535 19.619 24.042 19.5848 23.8984 19.5506C23.748 19.5164 23.5498 19.4344 23.4541 19.366C23.3516 19.284 22.7021 18.1424 21.8135 16.4881C21 14.9774 20.3164 13.7401 20.2891 13.7401C20.2617 13.7401 20.1455 13.9315 20.0361 14.1639Z" fill="white"/>
</g>
<defs>
<clipPath id="clip0_740_284">
<rect width="35" height="35" fill="white"/>
</clipPath>
</defs>
</svg>
