<svg width="35" height="35" viewBox="0 0 35 35" fill="none" xmlns="http://www.w3.org/2000/svg">
<mask id="mask0_740_292" style="mask-type:luminance" maskUnits="userSpaceOnUse" x="0" y="1" width="35" height="33">
<path fill-rule="evenodd" clip-rule="evenodd" d="M9.56467 3.646H10.2107C13.613 4.14912 14.5354 6.07995 17.5002 6.07995C20.465 6.07995 21.3874 4.14912 24.7904 3.646H25.1564C26.0661 3.646 26.9669 3.82517 27.8073 4.17329C28.6478 4.52141 29.4114 5.03165 30.0546 5.67489C30.6979 6.31813 31.2081 7.08177 31.5562 7.9222C31.9043 8.76263 32.0835 9.6634 32.0835 10.5731V11.0295C32.0835 13.1463 29.8304 15.5628 29.1669 17.8524C28.4632 20.2834 27.9812 22.2711 27.8398 24.35C27.508 29.2215 25.847 31.3543 24.0627 31.3543C21.3983 31.3543 19.0329 20.4351 17.5461 20.4351C16.0586 20.4351 13.1091 31.3543 10.9377 31.3543C9.61279 31.3543 7.89706 30.5705 7.25248 24.35C6.99581 21.8752 6.56269 20.3738 5.83352 17.8524C5.19185 15.6357 3.02769 12.9874 2.91685 10.6103C2.87504 9.71126 3.01601 8.81311 3.33123 7.97013C3.64646 7.12716 4.12938 6.35688 4.7508 5.70588C5.37222 5.05487 6.11923 4.53668 6.94664 4.18262C7.77405 3.82857 8.66468 3.64601 9.56467 3.646Z" fill="white" stroke="white" stroke-width="4"/>
<path d="M11.2891 9.08789L23.3342 12.9714M11.2891 12.9714L23.3342 9.08789" stroke="black" stroke-width="4" stroke-linecap="round"/>
</mask>
<g mask="url(#mask0_740_292)">
<path d="M0 0H35V35H0V0Z" fill="white"/>
</g>
</svg>
